<svg version="1.1" xmlns="http://www.w3.org/2000/svg" xmlns:xlink="http://www.w3.org/1999/xlink" width="64.57217" height="200.84853" viewBox="0,0,64.57217,200.84853"><g transform="translate(-208.00045,-80.00066)"><g data-paper-data="{&quot;isPaintingLayer&quot;:true}" fill="none" fill-rule="nonzero" stroke="none" stroke-width="none" stroke-linecap="butt" stroke-linejoin="miter" stroke-miterlimit="10" stroke-dasharray="" stroke-dashoffset="0" font-family="none" font-weight="none" font-size="none" text-anchor="none" style="mix-blend-mode: normal"><path d="M212.828,266.438c0.374,0.306 0.437,0.458 0.709,0.577c0.803,0.349 2.418,0.819 3.129,0.715c1.37,-0.194 1.183,-0.173 2.471,-0.254c0.069,-0.37 -0.28,-0.931 -0.243,-1.295c0.435,-0.211 1.006,-0.735 1.472,-0.927c0.804,-0.333 2.101,-0.627 2.911,-0.871c0.935,-0.282 2.039,-0.29 3.015,-0.136c0.717,0.114 1.097,1.901 1.237,2.573c0.086,0.413 0.665,0.318 0.924,0.648c0.225,0.284 0.715,0.414 0.889,0.73c0.397,0.72 1.003,1.219 1.468,1.847c0.504,0.679 0.926,1.155 1.676,1.501c0.888,0.409 0.457,0.481 1.543,0.723c0.531,0.121 1.65,0.418 2.163,0.543c0.445,0.111 1.372,0.383 1.38,0.97c1.55,0.564 0.792,1.794 -0.072,2.822c-0.425,0.509 -0.973,1.023 -1.538,1.302c-0.706,0.35 -1.341,0.77 -2.071,1.065c-0.822,0.334 -1.663,0.722 -2.543,0.857c-0.861,0.13 -1.737,0.466 -2.617,0.505c-1.922,0.085 -4.916,0.768 -6.16,-0.922c-1.006,-1.366 -2.52,-2.375 -3.915,-3.365c-1.481,-1.055 -2.971,-1.309 -4.54,-2.179c-0.765,-0.426 -2.188,-0.83 -2.611,-1.633c-0.411,-0.779 -0.272,-1.489 -0.315,-2.375c-0.036,-0.732 -0.002,-1.798 0.3,-2.42c0.279,-0.573 0.639,-0.733 1.444,-0.697" id="Shoe_Left_1_" fill="#2fa64a" stroke="none" stroke-width="1"/><path d="M243.151,260.079c0.55,0.163 0.844,0.481 1.111,0.605c0.51,0.238 1.518,0.289 2.065,0.427c1.256,0.319 2.853,-0.139 4.145,-0.215c1.807,-0.107 3.454,-1.07 5.168,-1.723c0.64,-0.244 1.81,-1.09 1.902,-1.835c0.09,-0.723 -0.472,-1.518 -0.426,-2.271c0.066,-1.049 0.919,-0.405 1.704,-0.184c0.386,0.109 0.473,0.094 0.806,0.319c0.239,0.159 0.706,0.17 0.802,0.443c0.47,1.329 1.155,0.433 0.133,1.329c0.183,-0.019 -1.923,1.406 -1.738,1.449c0.817,0.185 0.907,0.479 1.597,0.915c0.764,0.483 1.622,0.991 2.439,1.348c2.115,0.922 4.842,1.043 7.125,1.043c0.786,0 1.495,-0.035 1.823,0.874c0.196,0.542 0.502,1.339 0.319,1.836c-0.508,1.378 -1.854,2.974 -3.279,3.274c-2.024,0.421 -4.099,0.651 -6.21,0.339c-1.817,-0.268 -3.909,-0.802 -5.72,-1.138c-2.26,-0.416 -4.481,-0.191 -6.653,0.403c-1.807,0.494 -3.479,0.322 -5.375,0.113c-0.569,-0.064 -1.485,-0.492 -1.87,-0.876c-0.286,-0.285 -0.466,-0.606 -0.656,-0.963c-0.328,-0.621 -0.654,-1.281 -0.724,-1.988c-0.076,-0.766 -0.091,-2.092 0.418,-2.663c0.235,-0.262 0.404,-1.038 0.795,-0.954" id="Shoe_Right_1_" fill="#2fa64a" stroke="none" stroke-width="1"/><path d="M211.106,271.627c2.042,0.333 4.233,1.688 6.155,2.461c2.141,0.863 3.877,2.463 6.06,3.267c2.436,0.896 5.402,0.587 7.833,-0.336c1.14,-0.432 2.323,-0.689 3.215,-1.331c0.553,-0.396 1.168,-0.601 1.403,-1.189c0.163,-0.409 -0.146,-0.686 0.039,-1.035c0.05,-0.097 -0.19,-0.433 -0.185,-0.533c1.185,-0.136 1.63,0.486 2.266,1.502c0.673,1.075 -0.008,1.771 -0.482,2.584c-1.151,1.975 -4.301,2.543 -6.473,3.132c-2.168,0.587 -5.48,1.135 -7.555,0.188c-0.58,-0.267 -0.636,-0.591 -1.009,-0.999c-0.318,-0.35 -0.81,-0.584 -1.18,-0.875c-0.509,-0.401 -0.781,-0.918 -1.236,-1.312c-0.375,-0.323 -0.732,-0.539 -1.181,-0.767c-1.372,-0.695 -3.021,-1.503 -4.441,-2.113c-0.583,-0.25 -1.737,-0.674 -2.258,-1.011c-0.776,-0.499 -0.427,-1.121 -0.975,-1.703" id="Shoe_Trim_Left_1_" fill="#a9d7aa" stroke="none" stroke-width="1"/><path d="M242.364,264.981c0.156,-0.386 2.322,0.761 2.747,0.718c1.017,-0.103 2.166,0.148 3.172,-0.119c0.904,-0.239 1.586,0.016 2.392,-0.212c1.072,-0.305 2.075,-0.182 3.172,-0.07c1.122,0.111 2.192,0.448 3.337,0.566c1.357,0.142 2.787,0.373 4.167,0.498c2.171,0.195 4.153,0.34 6.274,-0.355c3.355,-1.102 3.288,-3.793 3.646,-4.101c1.407,1.06 1.418,2.799 -0.142,4.695c-1.339,1.631 -4.038,1.241 -5.938,1.422c-2.206,0.212 -4.41,-0.65 -6.562,-0.883c-0.993,-0.108 -1.943,-0.244 -2.964,-0.346c-1.415,-0.14 -3.047,-0.018 -4.4,0.323c-1.636,0.41 -3.056,0.316 -4.782,0.379c-0.995,0.035 -1.61,0.293 -2.462,-0.426c-0.523,-0.44 -0.344,-0.146 -0.686,-0.52c-0.042,-0.104 -0.407,-0.539 -0.379,-0.593" id="Shoe_Trim_Right_1_" fill="#a9d7aa" stroke="none" stroke-width="1"/><path d="M257.61,251.723c-0.086,0.484 -0.112,0.623 -0.193,0.828c-0.193,0.486 0.563,1.052 0.299,1.516c-0.597,1.044 0.569,3.157 -0.357,3.936c-1.64,1.371 -3.437,2.188 -5.805,2.638c-0.532,0.102 -1.09,0.164 -1.595,0.364c-0.586,0.232 -1.264,0.204 -1.919,0.178c-0.551,-0.023 -0.514,0.068 -1.027,-0.008c-0.505,-0.076 -0.128,-0.243 -0.734,-0.138c-0.629,-0.107 0.248,0.053 -0.917,-0.145c-0.72,-0.122 -2.14,-0.746 -1.332,-0.673c-1.238,-0.171 -4.063,-1.582 -3.668,-2.538c0.148,-0.361 1.644,-1.744 0.366,-3.936c-0.405,-0.692 -0.454,-1.969 0.293,-2.706c0.762,-0.752 0.345,-0.432 0.305,-1.521c-0.038,-1.072 -1.456,-3.101 -1.269,-4.19c0.205,-1.192 0.565,-0.749 1.179,-2.042c0.35,-0.74 0.834,-3.136 0.153,-4.173c-0.72,-1.097 -0.591,-3.049 -0.845,-4.328c-0.54,-2.729 -0.341,-5.751 -0.418,-8.521c-0.065,-2.383 0.005,-4.803 0.707,-7.059c0.252,-0.811 0.461,-1.655 0.714,-2.486c0.287,-0.938 0.579,-1.758 0.674,-2.735c0.251,-2.548 0.337,-4.815 -0.126,-7.315c-0.17,-0.92 -0.566,-1.774 -0.735,-2.689c-0.187,-1.012 -0.349,-1.974 -0.396,-3.029c-0.039,-0.859 -0.104,-2.066 -0.58,-2.792c-1.013,0.796 -1.002,3.108 -1.817,4.189c-0.821,1.085 -1.136,2.366 -1.775,3.562c-1.143,2.138 -1.899,4.583 -3.262,6.578c-1.348,1.973 -0.307,4.347 -0.208,5.302c0.077,0.756 -0.221,1.079 -0.39,1.825c-0.151,0.668 -0.203,1.506 -0.751,2.039c-0.448,0.437 -0.201,0.556 -0.267,1.143c-0.163,1.454 -0.779,2.302 -1.028,3.768c-0.278,1.64 -0.669,3.186 -1.066,4.708c-0.359,1.379 -0.877,3.068 -1.13,4.492c-0.245,1.381 -0.756,3.137 -0.835,5.953c-0.055,1.922 -0.514,2.198 -0.486,4.047c0.011,0.715 -0.089,0.81 -0.101,1.535c-0.016,0.908 -0.223,0.09 -0.007,0.828c0.317,1.086 -0.581,2.165 -0.648,3.297c-0.068,1.146 -0.112,0.083 0.031,1.217c0.104,0.812 0.868,1.922 0.447,2.571c-1.327,2.047 0.919,1.686 0.857,2.096c-0.351,2.304 -0.482,1.783 -1.579,4.148c-0.692,1.49 0.337,2.76 0.124,2.77c-2.045,0.093 -5.178,0.546 -6.813,1.501c-1.158,0.674 0.124,1.825 -1.33,1.828c-0.599,0.002 -1.975,0.4 -2.568,0.174c-1.047,-0.396 -0.51,0.056 -1.696,-0.48c-1.332,-0.605 -2.5,-1.059 -1.902,-0.781c1.422,0.655 -1.234,-0.462 -1.671,-1.4c-0.44,-0.945 -0.538,-6.022 -0.205,-7.434c0.15,-0.638 0.917,-1.581 0.748,-2.221c-0.072,-0.276 -0.317,-1.291 -0.089,-1.709c0.292,-0.538 -0.531,-0.415 -0.093,-0.99c0.351,-0.464 0.059,-1.063 0.214,-1.762c0.12,-0.537 -0.4,-1.531 -0.176,-2.028c0.235,-0.524 -0.03,-1.145 0.027,-1.719c0.098,-0.979 0.488,-2.146 0.734,-3.309c0.536,-2.53 1.329,-5.256 1.835,-7.968c0.457,-2.457 0.854,-4.734 1.307,-7.112c0.407,-2.133 0.256,-4.084 1.089,-6.18c0.418,-1.055 0.452,-2.575 0.953,-3.59c0.443,-0.898 1.74,-4.131 1.597,-3.144c-0.021,0.136 1.808,-3.459 1.675,-2.758c-0.276,1.451 0.445,-2.674 0.666,-4.099c0.221,-1.426 0.271,-2.896 0.621,-4.259c0.285,-1.113 0.335,-2.348 0.52,-3.506c0.378,-2.375 1.043,-4.718 1.087,-7.143c0.052,-2.854 0.581,-5.371 0.478,-8.218c-0.046,-1.264 0.937,-9.227 0.928,-9.217c1.75,1.441 9.126,2.509 13.186,1.868c3.79,-0.594 5.1,0.274 11.405,-2.166c2.533,-0.979 5.202,-3.638 6.72,-5.172c0.206,0.352 0.27,0.006 0.423,0.396c0.171,0.434 0.482,1.014 0.589,1.477c0.234,1.01 0.503,2.179 0.638,3.215c0.26,1.995 0.301,3.729 0.377,5.824c0.086,2.387 0.272,4.826 0.118,7.173c-0.156,2.367 0.021,4.754 -0.681,6.995c-0.352,1.122 -0.492,2.135 -0.723,3.29c-0.208,1.045 -0.387,2.186 -0.684,3.241c-0.277,0.991 -0.96,2.195 -1.073,3.149c-0.121,1.007 0.056,2.513 -0.653,3.312c-0.507,0.574 -0.267,0.772 -0.429,1.61c-0.143,0.735 -0.421,1.195 -0.43,1.95c-0.007,0.53 0.452,1.589 0.51,1.886c0.117,0.611 0.076,0.661 0,1.42c-0.146,1.442 -0.976,2.458 -1.138,3.761c-0.124,0.99 -0.09,2.068 -0.297,3.097c-0.45,2.243 0.395,4.543 0.589,6.794c0.409,4.755 1.28,10.513 1.632,12.945c0.205,1.408 0.432,0.692 0.719,2.181c0.383,1.989 0.417,2.725 1.689,2.62c0.245,-0.02 -0.32,1.382 0.363,1.575c0.022,0.005 0.092,0.404 0.386,1.338c0.28,0.888 0.817,0.072 0.246,0.696" id="Pants_3_" fill="#536aa4" stroke="none" stroke-width="1"/><path d="M222.549,92.799c1.404,0.74 2.442,0.869 4.145,0.615c1.873,-0.279 3.615,-1.204 5.402,-1.846c2.627,-0.945 5.37,-2.263 8.264,-1.595c2.449,0.565 4.383,3.353 4.646,5.738c0.135,1.218 0.107,2.113 0.642,3.243c0.242,0.512 0.229,1.264 0.48,1.78c0.308,0.632 0.599,0.917 1.049,1.387c1.366,1.423 2.431,3.942 1.594,5.805c-0.25,0.557 -0.292,1.071 -0.442,1.63c-0.167,0.616 -0.472,1.394 -0.771,1.941c-0.541,0.992 -1.279,1.84 -1.91,2.769c-0.69,1.016 -1.526,2.091 -2.381,2.943c-0.704,0.703 -1.818,1.46 -2.75,1.886c-0.482,0.221 -1.045,0.04 -1.016,0.565c0.015,0.28 0.075,1.139 0.173,1.426c0.247,0.725 0.663,1.604 1.263,1.948c-0.358,0.429 -1.197,0.123 -0.986,0.518c0.288,0.538 0.301,0.843 0.697,0.86c-0.081,0.54 -0.04,0.889 0.164,1.523c0.158,0.493 0.85,1.25 1.113,1.686c0.612,1.014 -0.249,1.772 -0.962,2.691c-1.622,2.088 -5.083,2.107 -7.092,0.895c-0.633,-0.382 -2.325,-0.909 -1.115,-1.994c0.721,-0.646 1.962,-0.445 2.647,-1.261c0.204,-0.244 0.485,-0.83 0.497,-1.136c0.028,-0.733 -0.424,-0.574 -0.994,-0.43c-1.083,0.273 -2.359,0.951 -3.492,0.989c0.925,-1.039 2.399,-1.9 3.705,-2.533c0.669,-0.324 1.184,-0.462 1.35,-1.364c0.063,-0.34 0.127,-0.733 -0.016,-1.05c-0.143,-0.315 -0.519,-0.312 -0.564,-0.713c-1.243,-0.568 -2.074,0.399 -3.258,0.84c-1.213,0.452 -2.265,1.339 -3.46,1.664c0.272,-0.555 0.634,-1.014 1.042,-1.765c0.938,-0.097 1.678,-0.27 2.563,-0.539c0.427,-0.13 1.073,-0.043 1.355,-0.388c0.166,-0.202 0.223,-1.199 -0.02,-1.444c-0.292,-0.296 -0.946,0.118 -1.264,0.217c-0.489,0.153 -0.81,0.195 -1.349,0.196c-0.836,0 -1.906,-0.106 -2.617,0.277c0.527,-0.677 0.608,-1.256 0.797,-2.069c0.091,-0.393 -0.139,-0.907 -0.097,-1.333c0.068,-0.703 -0.02,-0.736 -0.57,-1.066c-0.75,-0.449 -1.535,-0.698 -2.317,-1.113c-0.708,-0.377 -1.285,-1.477 -1.998,-1.718c-0.797,1.094 -2.847,0.242 -3.783,-0.15c-1.095,-0.458 -1.722,-0.838 -2.347,-1.827c-0.416,-0.658 -0.627,-2.696 -0.071,-3.371c0.82,-0.994 1.974,-0.533 2.794,-0.077c1.08,0.601 2.462,0.917 3.67,0.86c-0.312,-0.406 -0.952,-0.651 -1.342,-1.052c-0.485,-0.496 -1.364,-1.594 -1.585,-2.221c-0.388,-1.1 -0.487,-1.664 -0.727,-2.784c-0.469,-2.192 0,-4.435 1.083,-6.378c0.325,-0.583 0.667,-1.138 0.785,-1.776c0.097,-0.521 -0.074,-0.602 -0.27,-0.977c-0.162,-0.307 -0.541,-0.65 -0.353,-0.854" data-paper-data="{&quot;origPos&quot;:null}" id="Skin_Face_1_" fill="#af7700" stroke="none" stroke-width="1"/><path d="M215.018,137.579c1.736,0 3.316,0.604 4.866,1.41c1.639,0.852 2.569,2.054 3.8,3.354c0.388,-0.406 0.717,-0.625 1.091,-0.987c0.457,-0.44 0.946,-1.017 1.377,-1.467c0.811,-0.847 0.803,-2.077 1.113,-3.144c0.34,-1.17 0.359,-2.01 0,-3.189c-0.371,-1.219 -0.727,-1.925 -1.09,-3.134c-0.186,-0.618 -0.438,-1.304 -0.803,-1.854c-0.268,-0.403 -0.748,-1.8 -0.432,-2.206c0.477,-0.616 1.343,-2.198 1.941,-2.806c0.79,-0.801 1.083,-1.604 1.859,-2.409c0.713,-0.74 2.224,-0.586 3.184,-0.69c0.629,-0.068 1.329,-0.361 1.964,-0.266c1.047,1.497 -1.41,1.931 -2.313,2.032c-1.352,0.151 -2.115,0.676 -2.471,2.021c0.396,-0.458 0.644,-0.24 1.743,-0.777c0.491,-0.24 1.096,-0.624 1.586,-0.879c0.646,-0.337 2.127,-1.068 2.877,-0.93c0.224,0.042 0.996,0.548 1.111,0.72c0.361,0.539 0.552,0.612 0.227,1.089c-0.345,0.505 -1.082,1.07 -1.674,1.355c-0.525,0.252 -1.069,0.364 -1.546,0.72c-0.77,0.573 -1.185,1.316 -1.915,1.935c0.909,-0.316 1.828,-0.446 2.743,-0.799c0.546,-0.212 1.95,-0.997 1.831,0.125c-0.048,0.461 -0.766,1.142 -1.111,1.422c-0.682,0.552 -1.39,0.761 -2.216,0.992c-0.326,0.382 -0.645,0.868 -0.763,1.318c-0.141,0.535 0.48,0.979 0.676,1.491c0.417,1.089 0.456,1.965 0.649,3.159c0.104,0.641 0.145,1.012 -0.192,1.548c-0.316,0.505 -0.78,0.93 -1.113,1.43c-0.681,1.026 -1.202,2.193 -1.848,3.222c-0.657,1.045 -1.23,2.443 -1.833,3.533c-0.787,1.422 -1.499,2.96 -2.16,4.43c-1.119,2.487 -2.421,4.375 -4.252,6.409c-1.705,1.895 -3.475,3.179 -6.025,3.456c-0.418,0.045 -1.589,-0.008 -1.922,-0.301c-0.393,-0.346 -0.429,-1.304 -0.563,-1.788c-0.169,-0.607 -0.32,-1.041 -0.507,-1.653c-0.21,-0.688 -0.066,-1.223 0.001,-1.898c0.124,-1.238 -0.263,-2.46 -0.158,-3.664c0.095,-1.095 0.261,-2.019 0.545,-3.463c0.469,-2.384 1.695,-4.979 1.695,-7.418c0,-0.536 0.032,-0.891 0.1,-1.448" data-paper-data="{&quot;origPos&quot;:null}" id="Skin_Arm_Left_1_" fill="#af7700" stroke="none" stroke-width="1"/><path d="M257.208,136.573c0.509,0.351 0.976,1.242 1.36,1.753c0.645,0.859 1.172,1.711 1.894,2.51c0.726,0.804 1.535,1.56 2.238,2.415c0.638,0.774 1.159,1.604 1.801,2.378c1.337,1.613 1.777,3.719 0.675,5.587c-0.201,0.34 -0.376,0.702 -0.591,1.031c-0.321,0.488 -0.553,0.472 -1.116,0.472c-1,0 -1.964,-0.196 -2.946,-0.331c-1.098,-0.151 -2.217,-0.96 -3.127,-1.561c-0.528,-0.349 -0.893,-0.734 -1.313,-1.199c-0.376,-0.416 -0.872,-0.666 -1.244,-1.076c-0.328,-0.362 -0.524,-0.815 -0.851,-1.195c-0.375,-0.437 -0.693,-0.885 -1.088,-1.302c-0.44,-0.465 -1.005,-0.8 -1.362,-1.334c-0.244,-0.365 -0.44,-0.787 -0.685,-1.133c-0.455,-0.645 -1.027,-1.153 -1.469,-1.795c-0.389,-0.565 -0.915,-1.028 -1.316,-1.585c-0.317,-0.441 -0.815,-0.69 -1.181,-1.123c-0.299,-0.355 -0.494,-0.752 -0.826,-1.087c-0.387,-0.389 -0.678,-0.968 -1.115,-1.294c-0.36,-0.269 -0.69,-0.407 -0.958,-0.79c-0.25,-0.356 -0.492,-0.886 -0.595,-1.29c-0.127,-0.499 -0.002,-1.063 -0.151,-1.555c-0.063,-0.206 -0.176,-0.366 -0.235,-0.577c-0.079,-0.279 -0.123,-0.582 -0.181,-0.856c-0.08,-0.381 -0.182,-0.765 -0.202,-1.172c-0.044,-0.875 0.087,-1.602 -0.412,-2.375c-0.417,-0.645 -0.97,-1.255 -1.33,-1.93c-0.144,-0.27 -0.285,-0.723 -0.303,-1.031c-0.031,-0.503 0.28,-0.514 0.768,-0.484c0.65,0.04 1.099,0.611 1.639,0.836c0.083,-0.293 0.297,-0.603 0.493,-0.883c0.176,-0.252 0.733,-0.904 0.702,-1.178c-0.384,-0.03 -0.85,0.37 -1.143,0.597c-0.403,0.314 -0.655,0.485 -1.17,0.58c-0.898,0.166 -1.925,-0.046 -1.982,-1.177c0.396,-0.021 0.731,-0.316 1.081,-0.468c0.35,-0.154 0.691,-0.224 1.042,-0.427c0.625,-0.359 1.251,-0.646 1.892,-0.923c0.771,-0.333 1.261,-0.32 1.953,0.189c0.543,0.4 1.324,0.635 1.8,1.091c0.255,0.244 0.196,0.592 0.523,0.853c0.12,0.096 0.254,0.116 0.364,0.2c0.229,0.178 0.167,0.094 0.322,0.341c0.186,0.294 0.321,0.65 0.438,0.983c0.065,0.188 0.035,0.305 0.151,0.462c0.12,0.164 0.372,0.164 0.466,0.388c0.155,0.371 0.225,0.951 0.147,1.264c-0.103,0.411 -0.001,0.963 0,1.392c0.001,0.92 -0.163,1.862 -0.337,2.744c-0.162,0.818 -0.46,1.441 -0.427,2.32c0.015,0.406 -0.161,0.901 -0.07,1.279c0.083,0.348 0.284,0.627 0.39,0.957c0.244,0.767 1.256,1.552 1.75,2.122c0.469,0.54 1.242,1.544 2.046,1.658c0.347,0.048 1.095,-0.238 1.423,-0.369c0.381,-0.151 0.853,-0.528 1.125,-0.827c0.288,-0.315 0.4,-0.755 0.638,-1.08c0.257,-0.349 0.625,-0.443 0.558,-0.947" data-paper-data="{&quot;origPos&quot;:null}" id="Skin_Arm_Right_1_" fill="#af7700" stroke="none" stroke-width="1"/><path d="M226.93,103.815c0.963,-0.168 1.169,-0.583 2.052,-0.668c0.498,-0.048 1.396,-0.273 1.956,-0.181c0.603,0.1 0.812,-0.112 1.22,0.129c0.354,0.209 0.909,0.459 1.216,0.733c0.09,0.081 0.732,0.678 0.806,0.788c0.329,0.491 -0.345,0.841 -0.444,0.913c-0.515,0.369 -0.69,0.56 -1.203,0.833c-0.524,0.28 -1.563,0.724 -2.168,0.652c-0.627,-0.074 -2.217,-0.895 -2.667,-1.372c-0.176,-0.187 -0.945,-1.348 -0.548,-1.557M241.107,101.704c-0.158,0.119 -0.164,0.389 -0.208,0.573c-0.099,0.405 -0.555,1.01 -0.121,1.045c0.36,0.029 1.927,0.438 2.296,0.427c0.728,-0.018 1.841,-0.576 2.498,-1.343c0.226,-0.264 0.203,-0.606 0.301,-0.928c0.083,-0.274 0.23,-1.485 -0.004,-1.681c-0.346,-0.287 -0.346,-0.287 -1.022,-0.235c-0.603,0.046 -1.205,0.216 -1.76,0.46c-0.357,0.156 -0.838,0.435 -1.009,0.671c-0.108,0.149 -0.38,0.377 -0.496,0.519c-0.103,0.125 -0.301,0.052 -0.26,0.237" id="Eye_Whites_1_" fill="#ffffff" stroke="none" stroke-width="1"/><path d="M230.632,103.421c0.206,-0.008 0.478,0.221 0.635,0.347c0.207,0.165 0.229,0.3 0.293,0.536c0.037,0.135 -0.019,0.281 -0.02,0.425c-0.001,0.142 0.027,0.156 -0.024,0.272c-0.077,0.179 -0.036,0.232 -0.193,0.381c-0.099,0.094 -0.188,0.183 -0.311,0.25c-0.482,0.267 -1.183,0.286 -1.613,-0.115c-0.212,-0.198 -0.316,-0.247 -0.364,-0.559c-0.05,-0.323 0.033,-0.658 0.149,-0.945c0.178,-0.435 1.012,-0.728 1.448,-0.592M241.714,101.928c0.025,0.244 0.252,0.517 0.402,0.696c0.305,0.363 0.956,0.353 1.316,0.136c0.188,-0.111 0.415,-0.534 0.479,-0.767c0.05,-0.18 -0.067,-0.723 -0.199,-0.872c-0.149,-0.167 -0.589,-0.304 -0.784,-0.374c-0.878,-0.321 -1.274,0.59 -1.214,1.181z" id="Irises_3_" fill="#3b2416" stroke="none" stroke-width="1"/><path d="M234.718,112.766c0.852,-0.532 2.297,-0.16 3.243,-0.453c0.984,-0.306 1.78,-0.519 2.793,-0.662c0.622,-0.088 1.742,-0.683 2.354,-0.742c-0.031,0.174 -0.188,0.542 -0.188,0.742c0,0.18 -0.019,0.499 0,0.681c0.028,0.264 0.011,1.041 -0.143,1.278c-0.099,0.153 -0.568,0.006 -0.719,-0.015c-0.205,-0.029 -0.655,-0.131 -0.876,-0.15c-0.449,-0.038 -0.553,-0.149 -1.012,-0.149c-0.915,0 -1.949,-0.201 -2.832,0c-0.345,0.078 -0.715,0.164 -1.066,0.216c-0.364,0.054 -0.712,-0.203 -1.05,-0.369c-0.095,-0.047 -0.663,-0.208 -0.648,-0.305" id="Mouth_1_" fill="#3f1212" stroke="none" stroke-width="1"/><path d="M236.158,113.583c-0.03,-0.21 2.547,-0.337 2.869,-0.354c0.699,-0.033 1.456,0.215 2.156,0.214c0.276,0 0.477,0.08 0.743,0.13c0.212,0.041 0.621,0.056 0.777,0.171c0.007,0 -0.084,-0.423 -0.077,-0.421c0.207,0.566 -0.293,0.871 -0.689,1.158c-0.446,0.324 -0.88,0.404 -1.442,0.521c-0.703,0.145 -1.521,-0.041 -2.194,-0.258c-0.37,-0.119 -0.681,-0.299 -1.022,-0.475c-0.284,-0.146 -0.643,-0.278 -0.896,-0.455c-0.105,-0.073 -0.208,-0.198 -0.252,-0.312" id="Tongue_1_" fill="#a23422" stroke="none" stroke-width="1"/><path d="M236.28,112.473c0.514,-0.179 1.083,-0.436 1.42,-0.597c0.433,-0.208 0.906,-0.345 1.35,-0.533c0.506,-0.214 0.918,-0.423 1.465,-0.527c0.48,-0.091 0.936,-0.189 1.447,-0.189c0.158,0 1.205,-0.129 1.185,0.189c-0.012,0.199 -1.317,0.482 -1.52,0.55c-0.763,0.255 -1.526,0.45 -2.312,0.628c-0.746,0.17 -1.535,0.221 -2.295,0.315c-0.269,0.032 -0.513,0.044 -0.74,0.164" id="Teeth_2_" fill="#ffffff" stroke="none" stroke-width="1"/><path d="M216.122,86.44c-0.123,-1.071 0.882,-2.067 1.709,-2.567c0.554,-0.334 1.107,-0.685 1.751,-0.873c0.676,-0.196 0.942,-0.222 1.443,-0.675c-0.088,0.007 1.479,-0.568 1.397,-0.553c1.288,-0.934 3.225,-0.992 4.793,-1.252c2.383,-0.394 4.004,-0.266 6.427,-0.305c-0.11,0.037 1.259,0.084 1.147,0.116c1.698,0.127 1.694,0.198 3.344,0.581c1.837,0.427 3.372,1.643 4.962,2.601c1.568,0.945 2.368,2.041 3.502,3.422c0.873,1.063 1.848,2.1 2.828,3.069c2.208,2.182 3.872,4.483 4.998,7.375c0.439,1.13 0.377,2.379 0.377,3.604c0,1.261 -0.031,2.41 -0.091,3.657c-0.059,1.242 -0.13,2.199 0.003,3.408c0.072,0.649 0.371,1.342 0.595,1.947c0.238,0.644 0.625,1.209 0.899,1.84c1.076,2.478 2.749,4.658 3.898,7.081c0.561,1.184 0.569,2.295 0.701,3.577c0.102,1 -0.256,2.314 -1.161,2.908c-0.695,-1.122 -0.504,-2.241 -1.507,-3.213c-1.022,-0.991 -3.553,-1.41 -4.974,-1.178c0.021,0.421 1.403,1.511 1.772,1.863c0.653,0.621 1.421,1.107 2.031,1.782c-1.569,0.102 -3.111,-0.367 -4.713,-0.444c-0.531,-0.025 -1.408,-0.006 -1.88,-0.257c-0.511,-0.271 -0.632,-0.711 -0.989,-1.141c-1.516,-1.819 -3.944,-2.553 -6.208,-1.96c-0.683,0.18 -2.81,1.215 -3.353,0.802c-0.238,-0.181 -0.365,-1.263 -0.406,-1.558c-0.127,-0.936 0.153,-0.752 0.917,-0.991c2.226,-0.696 4.149,-2.931 5.264,-4.852c0.306,-0.527 0.791,-0.757 1.001,-1.323c0.092,-0.248 0.43,-0.673 0.562,-0.883c0.199,-0.315 0.162,-0.708 0.448,-0.945c0.956,-0.799 0.998,-2.292 1.256,-3.411c0.232,-1.003 -0.055,-2.97 -0.515,-3.911c-0.916,-1.873 -1.667,-2.016 -1.96,-2.934c-1.912,-5.976 -1.631,-10.595 -7.278,-11.167c-1.779,-0.179 -2.961,0.29 -4.55,0.973c-1.25,0.539 -2.593,1.041 -3.892,1.463c-1.481,0.479 -2.846,1.023 -4.308,1.464c-1.116,0.336 -2.104,0.298 -3.891,-0.574c0.68,1.105 0.701,1.693 0.213,2.763c-0.325,0.713 -0.417,1.542 -0.87,2.217c-0.397,0.594 -0.353,1.15 -0.61,1.795c-0.413,1.037 -0.338,2.393 0.1,3.539c0.384,1.005 0.532,2.341 1.216,3.19c0.742,0.921 1.67,1.466 2.54,2.28c-1.865,0.075 -3.354,0 -4.88,-1.378c0.044,-0.028 -0.56,-0.027 -0.514,0c-1.233,0.412 -1.182,0.955 -1.298,2.113c-0.114,1.136 0.365,2.083 1.031,2.891c1.038,1.258 3.888,2.233 5.496,1.113c1.276,1.429 3.155,1.986 4.708,2.906c0.071,1.217 0.145,2.597 -0.214,3.736c-0.173,0.548 -0.461,0.905 -0.913,1.357c-0.473,0.473 -0.888,1.028 -1.268,1.552c-0.313,0.433 -0.556,0.853 -0.871,1.304c-0.287,0.412 -0.607,0.982 -0.927,1.365c-0.801,0.957 -0.39,2.007 0.073,3.112c0.341,0.814 0.618,1.762 1.05,2.529c0.354,0.631 0.71,1.359 0.551,2.181c-0.093,0.483 -0.944,0.909 -1.237,1.499c-0.2,0.403 -0.364,0.619 -0.6,0.998c-0.333,0.535 -0.474,0.416 -0.346,1.047c-0.174,-0.549 -0.648,-1.135 -0.971,-1.578c-0.38,-0.521 -0.734,-0.826 -1.109,-1.333c-0.721,-0.979 -2.081,-2.121 -3.095,-2.804c-2.05,-1.384 -4.544,-3.052 -6.021,-5.063c-0.75,-1.021 -1.056,-1.482 -1.025,-2.77c-0.593,0.703 -1.137,1.234 -1.129,2.225c0.005,0.75 0.575,1.486 0.531,2.207c-1.664,-1.717 -3.289,-3.871 -3.784,-6.248c-0.276,-1.325 -0.212,-2.469 0.272,-3.76c0.53,-1.414 0.649,-2.173 1.446,-3.422c1.419,-2.225 2.447,-5.198 2.734,-7.742c0.142,-1.259 -0.467,-2.337 -0.525,-3.522c-0.062,-1.277 -0.394,-2.455 -0.658,-3.673c-0.285,-1.314 -0.63,-2.5 -0.69,-3.877c-0.054,-1.225 0.032,-2.58 0.2,-3.825c0.341,-2.523 2.241,-4.156 4.366,-5.206c0.264,-0.13 0.725,-0.119 0.755,-0.36" data-paper-data="{&quot;origPos&quot;:null}" id="Hair_3_" fill="#20140d" stroke="none" stroke-width="1"/><path d="M214.572,127.252c-0.198,0.699 -0.918,1.495 -1.057,2.459c-0.132,0.921 -0.051,1.888 -0.272,2.806c-0.213,0.887 -0.278,1.938 -0.524,2.802c-0.198,0.697 -0.662,1.996 -1.059,2.566c0.573,0.674 1.513,2.156 2.387,2.438c0.985,0.318 0.679,-0.29 0.789,-1.033c0.089,-0.608 0.468,-1.114 0.452,-1.743c1.597,0.261 3.309,0.648 4.732,1.548c1.165,0.737 2.84,2.019 3.443,3.256c0.879,0.157 1.91,-1.459 2.335,-2.097c0.299,-0.449 0.605,-0.95 0.879,-1.428c0.357,-0.625 0.309,-1.053 0.481,-1.733c0.144,-0.572 1.333,-3.516 -0.108,-3.326c-0.435,0.058 -0.904,1.079 -1.164,1.391c-0.531,0.635 -0.887,0.942 -1.033,1.733c-0.037,-0.722 -1.087,-1.981 -1.559,-2.544c-0.879,-1.049 -2.017,-1.894 -3.093,-2.722c-1.029,-0.791 -1.923,-1.576 -3.08,-2.199c-0.939,-0.506 -1.889,-1.038 -2.637,-2.087M240.099,121.982c0.024,-0.323 1.478,-0.806 1.854,-0.939c0.76,-0.269 1.902,-0.405 2.724,-0.366c1.83,0.086 3.587,0.951 4.834,2.242c0.355,0.367 0.362,0.661 0.599,1.05c0.201,0.334 0.553,0.614 0.783,0.941c0.294,0.419 0.68,0.735 1.009,1.121c0.336,0.393 0.541,0.845 0.832,1.268c0.638,0.931 1.877,1.56 2.868,2.061c0.916,0.464 2.261,0.436 2.582,1.598c0.227,0.826 -0.035,1.78 -0.035,2.634c0,0.905 -0.322,1.742 -0.72,2.537c-0.412,0.823 -0.706,1.68 -1.377,2.344c-0.501,0.494 -1.564,1.281 -2.293,1.268c-0.925,-0.018 -1.949,-1.121 -2.585,-1.708c-0.663,-0.612 -0.869,-1.465 -1.414,-2.149c-1.196,-1.502 0,-2.893 0.1,-4.485c0.055,-0.872 0.162,-1.742 0.204,-2.636c0.039,-0.824 -0.25,-1.784 -0.078,-2.589c-0.867,-0.421 -0.226,-1.453 -0.821,-1.984c-0.146,-0.13 -0.41,-0.056 -0.578,-0.157c-0.152,-0.09 -0.319,-0.391 -0.424,-0.548c-0.229,-0.343 -0.263,-0.608 -0.646,-0.807c-0.422,-0.219 -0.607,-0.276 -0.938,-0.599c-0.227,-0.221 -0.507,-0.542 -0.766,-0.73c-0.669,-0.486 -1.61,0.343 -2.296,0.599c-0.768,0.286 -1.539,0.663 -2.331,0.875c-0.399,0.106 -0.393,0.141 -0.681,-0.219c-0.173,-0.217 -0.368,-0.442 -0.402,-0.719M241.616,124.617c0.176,-0.303 0.914,-0.433 1.269,-0.526c0.478,-0.127 0.754,-0.261 1.111,-0.592c0.141,0.79 -0.697,1.517 -1.257,1.856c-0.24,-0.278 -0.904,-1.028 -1.318,-0.836M232.563,130.299c1.624,1.284 3.833,2.109 5.998,1.454c0.603,-0.184 1.885,-0.652 2.329,-1.095c0.557,-0.556 0.849,-1.606 1.115,-2.316c1.011,0.819 0.49,1.931 0.783,3.026c0.306,1.146 0.472,2.357 0.939,3.48c0.49,1.176 1.457,2.108 2.206,3.109c0.713,0.953 1.443,1.848 2.255,2.715c1.697,1.811 4.048,3.656 4.048,6.32c0,2.359 0.017,4.728 -0.212,7.031c-0.129,1.272 0.106,2.289 0.526,3.488c0.395,1.129 0.988,2.305 1.332,3.435c0.347,1.141 0.792,2.107 1.181,3.233c0.313,0.905 1.018,2.111 1.259,2.9c0.31,1.023 2.137,1.07 1.738,2.566c-0.139,0.516 -0.274,0.694 -0.413,1.252c-0.094,0.378 -0.667,1.514 -0.738,1.784c-0.193,0.73 -0.558,-0.811 -0.923,-1.104c-0.424,-0.34 -0.784,0.168 -1.105,0.569c-0.372,0.464 -0.547,0.694 -1.07,0.96c-0.531,0.269 -0.841,0.708 -1.321,1.077c-1.017,0.781 -1.882,1.535 -3.062,2.034c-1.373,0.581 -2.676,1.048 -4.125,1.358c-1.649,0.353 -3.157,0.696 -4.776,0.845c-1.472,0.135 -3.143,0.296 -4.669,0.223c-2.842,-0.133 -4.502,0.175 -7.216,-0.4c-1.391,-0.295 -3.906,-0.907 -4.797,-2.062c-0.96,-1.245 -0.347,-1.711 0.391,-2.857c0.262,-0.407 0.439,-0.937 0.511,-1.408c0.04,-0.262 -0.036,-0.512 -0.01,-0.777c0.051,-0.53 -0.094,-0.219 0.371,-0.624c0.546,-0.479 0.805,-0.373 0.584,-1.102c-0.156,-0.513 -0.452,-0.904 -0.302,-1.542c0.239,-1.009 1.328,-1.529 1.733,-2.518c0.475,-1.163 0.867,-1.923 0.932,-3.2c0.063,-1.244 -0.119,-2.889 -0.25,-4.157c-0.136,-1.301 -0.317,-2.204 -0.801,-3.408c-0.426,-1.059 -1.315,-1.716 -1.847,-2.679c-0.348,-0.632 -0.079,-0.826 0.359,-1.314c0.455,-0.506 0.592,-1.129 0.851,-1.759c0.485,-1.184 1.274,-2.226 1.861,-3.337c0.545,-1.033 0.908,-2.127 1.548,-3.126c0.67,-1.045 0.898,-2.194 1.422,-3.267c0.237,-0.487 0.46,-1.021 0.741,-1.475c0.344,-0.557 0.748,-0.559 1.14,-0.938c0.822,-0.796 0.39,-2.295 0.21,-3.198c-0.131,-0.658 -1.173,-2.74 -0.726,-3.196" id="Shirt_3_" fill="#2fa64a" stroke="none" stroke-width="1"/><path d="M256.832,259.921c0.098,-0.109 0.498,-0.105 0.332,0.076c-0.559,0.616 -1.611,0.107 -1.756,-0.624c-0.032,-0.157 0.381,-0.26 0.411,-0.109c0.067,0.336 0.655,1.05 1.013,0.657zM244.518,267.223c0.169,0.121 -0.209,0.288 -0.326,0.203c-1.246,-0.881 -2.695,-2.1 -2.83,-3.747c-0.116,-1.414 0.431,-2.617 1.186,-3.777c0.077,-0.12 0.494,-0.15 0.385,0.018c-0.736,1.131 -1.481,2.573 -1.104,3.971c0.4,1.488 1.468,2.469 2.689,3.332zM244.277,267.45c-0.279,-0.023 -0.01,-0.261 0.156,-0.247c1.836,0.147 3.669,0.351 5.504,0.024c2.003,-0.356 3.85,-0.889 5.91,-0.659c1.987,0.224 3.906,0.746 5.868,1.106c2.337,0.429 4.455,0.264 6.788,-0.035c0.283,-0.036 0.151,0.216 -0.053,0.242c-1.851,0.237 -3.668,0.531 -5.532,0.265c-2.109,-0.302 -4.159,-0.921 -6.268,-1.212c-1.741,-0.239 -3.386,-0.216 -5.103,0.18c-0.911,0.209 -1.809,0.422 -2.746,0.482c-1.524,0.096 -3.007,-0.026 -4.524,-0.146zM258.904,258.656c-0.177,-0.092 0.199,-0.27 0.326,-0.209c2.773,1.436 4.97,3.132 8.246,3.178c1.213,0.015 4.129,-0.36 4.844,1.083c0.785,1.591 -0.381,3.691 -1.828,4.517c-1.766,1.011 -3.726,0.986 -5.705,0.921c-0.279,-0.009 -0.007,-0.251 0.157,-0.245c2.427,0.08 5.434,0.117 6.733,-2.369c0.424,-0.81 0.916,-2.214 0.038,-2.949c-0.799,-0.671 -1.897,-0.669 -2.891,-0.689c-1.809,-0.035 -3.629,0.015 -5.325,-0.717c-1.611,-0.697 -3.04,-1.715 -4.595,-2.521zM270.79,261.94c0.007,-0.146 0.421,-0.225 0.412,-0.043c-0.256,5.251 -6.853,4.892 -10.609,4.482c-2.729,-0.302 -5.417,-0.781 -8.167,-0.896c-2.13,-0.09 -4.189,0.313 -6.3,0.316c-1.492,0.004 -2.928,-0.207 -4.154,-1.114c-0.168,-0.124 0.21,-0.291 0.325,-0.207c1.531,1.132 3.506,1.209 5.335,0.98c1.837,-0.232 3.621,-0.302 5.473,-0.195c2.178,0.129 4.306,0.458 6.47,0.729c3.751,0.469 10.949,1.409 11.215,-4.052zM257.657,254.664c-0.249,0.052 -0.313,-0.168 -0.06,-0.217c0.999,-0.205 3.763,0.678 3.689,2.032c-0.023,0.419 -0.86,0.955 -1.155,1.177c-0.997,0.748 -2.175,1.327 -2.925,2.354c-0.083,0.112 -0.5,0.141 -0.385,-0.017c0.851,-1.165 2.19,-1.687 3.237,-2.627c0.239,-0.211 0.464,-0.438 0.705,-0.648c0.398,-0.349 -0.511,-1.144 -0.721,-1.267c-0.655,-0.386 -1.598,-0.946 -2.385,-0.787z" id="Right_Shoe_1_" fill="#010101" stroke="none" stroke-width="1"/><path d="M212.337,266.745c-0.141,0.078 -0.502,0 -0.259,-0.133c0.49,0.149 0.389,0.407 -0.304,0.781c-0.038,0.151 -0.061,0.305 -0.069,0.463c-0.039,0.505 -0.106,1.012 -0.104,1.522c0.005,0.977 -0.134,2.434 0.618,3.21c1.128,1.164 3.054,1.526 4.487,2.217c1.715,0.826 3.49,1.711 4.825,3.107c0.711,0.743 1.391,1.766 2.382,2.161c1.46,0.578 3.054,0.52 4.585,0.328c2.582,-0.322 5.11,-1.009 7.347,-2.373c0.784,-0.475 2.184,-1.235 2.256,-2.284c0.105,-1.547 -0.826,-2.503 -2.277,-2.862c-2.013,-0.501 -3.441,-0.843 -4.849,-2.457c-1.081,-1.239 -1.957,-2.396 -3.397,-3.24c-0.175,-0.102 0.202,-0.277 0.326,-0.206c1.864,1.09 2.756,2.903 4.398,4.245c1.42,1.157 3.145,0.933 4.686,1.733c0.746,0.387 1.452,1.061 1.521,1.957c0.15,1.945 -1.732,2.869 -3.203,3.709c-2.316,1.321 -5.197,1.959 -7.84,2.112c-1.126,0.066 -2.396,0.132 -3.469,-0.294c-1.109,-0.438 -1.717,-1.181 -2.523,-2.025c-1.908,-1.994 -4.561,-3.36 -7.14,-4.298c-0.837,-0.304 -1.932,-0.614 -2.497,-1.366c-0.639,-0.852 -0.614,-1.822 -0.646,-2.852c-0.039,-1.231 -0.176,-2.77 1.091,-3.4c0.137,-0.07 0.434,0.035 0.212,0.159c-0.053,0.026 -0.105,0.059 -0.157,0.086zM235.673,272.802c-0.063,-0.133 0.339,-0.26 0.411,-0.114c1.402,2.938 -5.269,4.525 -7.093,4.837c-1.417,0.244 -3.014,0.484 -4.449,0.228c-1.445,-0.255 -2.535,-0.956 -3.729,-1.773c-2.88,-1.976 -6.19,-3.085 -9.391,-4.413c-0.179,-0.074 0.195,-0.261 0.326,-0.205c2.593,1.074 5.302,1.967 7.741,3.375c1.139,0.661 2.171,1.552 3.346,2.14c1.497,0.747 3.127,0.817 4.768,0.619c1.87,-0.224 9.532,-1.632 8.07,-4.694zM220.855,269.664c0.057,0.141 -0.35,0.263 -0.412,0.108c-0.487,-1.216 -1.327,-2.207 -1.987,-3.327c-0.035,-0.058 0.004,-0.117 0.062,-0.148c2.116,-1.171 5.023,-2.453 7.523,-2.188c1.706,0.182 2.215,2.654 1.31,3.938c-0.082,0.114 -0.499,0.143 -0.385,-0.016c0.492,-0.7 0.552,-2.646 -0.148,-3.28c-1.016,-0.918 -3.586,-0.137 -4.694,0.216c-0.722,0.229 -1.437,0.489 -2.118,0.823c-0.962,0.473 -1.009,0.811 -0.46,1.603c0.508,0.733 0.977,1.444 1.309,2.271zM227.166,267.793c0.088,-0.108 0.505,-0.132 0.385,0.016c-1.551,1.922 -4.663,2.302 -6.965,2.122c-0.278,-0.021 -0.008,-0.259 0.158,-0.247c2.093,0.165 5.005,-0.133 6.422,-1.891z" id="Left_Shoe_1_" fill="#010101" stroke="none" stroke-width="1"/><path d="M231.511,104.293c0.17,0.671 -0.235,1.354 -0.905,1.523c-0.671,0.17 -1.353,-0.235 -1.523,-0.906c-0.17,-0.671 0.235,-1.352 0.906,-1.522c0.671,-0.17 1.353,0.237 1.522,0.905zM242.656,100.753c-0.576,0.108 -0.953,0.662 -0.846,1.237c0.107,0.576 0.662,0.954 1.236,0.845c0.575,-0.108 0.953,-0.662 0.846,-1.236c-0.108,-0.574 -0.661,-0.953 -1.236,-0.846z" id="Irises_2_" fill="none" stroke="#010101" stroke-width="0.75"/><path d="M234.291,104.743c0.163,-0.169 0.694,-0.097 0.456,0.152c-0.995,1.035 -2.818,2.359 -4.335,2.307c-1.94,-0.065 -3.534,-1.348 -4.087,-3.202c-0.03,-0.1 0.074,-0.193 0.155,-0.227c2.485,-1.047 6.619,-1.86 8.291,0.927c0.144,0.239 -0.381,0.44 -0.503,0.237c-1.38,-2.296 -4.623,-1.918 -6.803,-1.146c-0.688,0.243 -0.616,0.457 -0.137,1.137c0.148,0.235 0.319,0.453 0.51,0.655c0.628,0.604 1.453,1.189 2.365,1.22c1.473,0.049 3.102,-1.036 4.088,-2.06zM240.579,103.661c-0.326,-0.113 0.096,-0.435 0.319,-0.359c1.228,0.417 3.232,0.611 4.133,-0.521c0.467,-0.585 1.603,-3.069 0.125,-3.008c-2.056,0.084 -4.069,1.516 -4.14,3.686c-0.008,0.236 -0.564,0.325 -0.555,0.046c0.052,-1.561 1.037,-2.815 2.419,-3.488c0.925,-0.451 2.205,-0.89 3.225,-0.496c0.519,0.2 0.304,1.453 0.19,1.842c-0.219,0.747 -0.592,1.517 -1.243,1.987c-1.222,0.881 -3.1,0.777 -4.473,0.311zM227.098,104.067c-0.265,0.157 -0.56,-0.118 -0.241,-0.307c0.101,-0.059 0.207,-0.097 0.31,-0.151c0.079,0.103 0.159,0.206 0.239,0.308c-0.161,0.064 -0.357,0.105 -0.485,0.226c-0.092,-0.084 -0.185,-0.169 -0.277,-0.254c0.244,-0.062 0.494,-0.12 0.682,-0.302c0.136,0.065 0.272,0.129 0.408,0.193c-0.243,0.154 -0.438,0.304 -0.462,0.612c-0.169,-0.017 -0.338,-0.035 -0.506,-0.052c0.144,-0.144 0.24,-0.276 0.285,-0.481c0.168,0.017 0.337,0.034 0.506,0.052c-0.176,0.248 -0.199,0.511 -0.15,0.802c0.042,0.248 -0.478,0.392 -0.549,0.147c-0.08,-0.279 -0.124,-0.563 -0.233,-0.833c0.182,-0.048 0.365,-0.098 0.548,-0.147c0.061,0.779 0.455,1.296 0.932,1.883c0.182,0.224 -0.343,0.383 -0.504,0.236c-1.052,-0.963 -0.279,-2.785 1.077,-2.859c0.376,-0.021 0.252,0.369 -0.053,0.386c-1.075,0.058 -1.186,1.627 -0.52,2.236c-0.168,0.078 -0.336,0.157 -0.504,0.236c-0.499,-0.613 -0.913,-1.159 -0.976,-1.972c-0.019,-0.25 0.45,-0.39 0.548,-0.147c0.109,0.269 0.153,0.554 0.234,0.832c-0.183,0.048 -0.365,0.098 -0.549,0.147c-0.071,-0.415 -0.001,-0.758 0.242,-1.1c0.089,-0.124 0.56,-0.197 0.506,0.052c-0.06,0.274 -0.186,0.48 -0.383,0.678c-0.107,0.106 -0.527,0.216 -0.506,-0.053c0.034,-0.414 0.323,-0.683 0.658,-0.895c0.149,-0.093 0.655,-0.044 0.408,0.194c-0.293,0.285 -0.651,0.412 -1.042,0.512c-0.141,0.036 -0.473,-0.069 -0.276,-0.255c0.207,-0.195 0.441,-0.279 0.703,-0.384c0.274,-0.109 0.581,0.133 0.239,0.308c-0.104,0.054 -0.209,0.092 -0.309,0.152zM245.639,100.338c-0.104,-0.215 0.437,-0.379 0.548,-0.147c0.161,0.333 0.126,0.651 0.116,1.011c-0.006,0.209 -0.509,0.327 -0.551,0.096c-0.076,-0.418 -0.074,-0.806 -0.42,-1.105c-0.225,-0.195 0.191,-0.409 0.373,-0.334c0.048,0.021 0.099,0.042 0.149,0.063c-0.124,0.111 -0.248,0.222 -0.373,0.333c-0.351,-0.252 -0.691,-0.409 -1.132,-0.381c0.04,-0.129 0.082,-0.258 0.123,-0.386c0.547,0.025 1.03,0.211 1.517,0.447c-0.141,0.102 -0.283,0.206 -0.425,0.309c-0.496,-0.317 -0.966,-0.502 -1.546,-0.295c-0.333,0.118 -0.421,-0.245 -0.097,-0.36c0.749,-0.267 1.42,-0.068 2.068,0.347c0.273,0.173 -0.238,0.398 -0.425,0.309c-0.415,-0.201 -0.821,-0.349 -1.285,-0.371c-0.341,-0.016 -0.108,-0.372 0.123,-0.386c0.57,-0.034 1.044,0.129 1.505,0.46c0.244,0.175 -0.199,0.405 -0.373,0.333c-0.049,-0.021 -0.099,-0.041 -0.149,-0.062c0.125,-0.111 0.248,-0.223 0.373,-0.334c0.417,0.361 0.449,0.751 0.543,1.267c-0.184,0.032 -0.368,0.065 -0.552,0.097c0.01,-0.328 0.036,-0.609 -0.11,-0.911z" id="Eyes_1_" fill="#010101" stroke="none" stroke-width="1"/><path d="M230.472,128.347c-0.114,0.16 -0.672,0.192 -0.516,-0.029c0.509,-0.722 1.473,-0.939 2.279,-1.167c1.348,-0.381 2.566,-0.989 3.969,-1.178c0.079,-0.011 0.276,0.012 0.243,0.139c-0.27,1.055 -0.63,1.851 -1.552,2.474c-0.346,0.234 -0.781,0.335 -1.177,0.453c-1.615,0.481 -1.302,1.511 -0.902,2.569c0.627,1.657 1.907,4.528 -0.016,5.702c-0.194,0.12 -0.667,0.001 -0.349,-0.192c2.846,-1.742 -2.083,-5.901 0.081,-7.912c0.285,-0.264 0.742,-0.372 1.103,-0.477c0.722,-0.209 1.462,-0.534 1.81,-1.257c0.141,-0.292 0.794,-1.279 -0.172,-1.014c-0.828,0.227 -1.597,0.603 -2.416,0.846c-0.75,0.223 -1.906,0.363 -2.385,1.043zM227.51,136.395c-0.069,0.2 -0.624,0.27 -0.551,0.06c1.262,-3.631 -2.189,-6.497 -2.295,-10.02c-0.008,-0.232 0.543,-0.348 0.548,-0.147c0.107,3.554 3.573,6.44 2.298,10.107zM229.416,120.582c0.194,-0.12 0.667,0 0.349,0.193c-2.077,1.257 -3.105,3.763 -4.569,5.601c-0.122,0.154 -0.68,0.178 -0.516,-0.029c1.515,-1.903 2.58,-4.46 4.736,-5.765zM230.526,122.625c-0.378,0.026 -0.219,-0.317 0.065,-0.339c0.891,-0.062 4.558,-0.469 3.121,-2.122c0.099,0.014 0.197,0.028 0.295,0.042c-1.518,0.357 -3.066,0.641 -4.631,0.515c-0.371,-0.03 -0.024,-0.361 0.206,-0.342c1.469,0.12 2.916,-0.148 4.342,-0.482c0.09,-0.021 0.226,-0.037 0.295,0.043c1.721,1.978 -2.65,2.612 -3.693,2.685zM236.089,122.619c-0.088,0.179 -0.641,0.225 -0.517,-0.03c0.724,-1.478 -2.364,-0.18 -2.158,-0.27c-0.32,0.132 -0.636,0.278 -0.945,0.434c-0.483,0.254 -0.953,0.53 -1.436,0.783c-1.165,0.612 -2.61,1.205 -3.402,2.31c-0.116,0.16 -0.673,0.19 -0.516,-0.029c0.814,-1.136 2.176,-1.744 3.382,-2.377c1.733,-0.909 3.342,-1.809 5.313,-2.077c0.062,-0.008 0.181,-0.005 0.221,0.057c0.308,0.477 0.315,0.673 0.058,1.199zM230.053,122.488c0.118,-0.155 0.676,-0.182 0.516,0.031c-0.464,0.614 -0.861,1.267 -1.266,1.921c-0.105,0.17 -0.662,0.204 -0.516,-0.03c0.405,-0.654 0.801,-1.307 1.266,-1.922zM233.226,121.857c0.378,-0.029 0.217,0.315 -0.066,0.337c-0.992,0.08 -1.957,0.34 -2.941,0.474c-0.378,0.052 -0.212,-0.299 0.066,-0.337c0.984,-0.135 1.948,-0.396 2.941,-0.474zM231.134,127.847c-0.191,0.127 -0.659,0.012 -0.349,-0.194c0.828,-0.551 1.488,-1.387 2.234,-2.041c0.927,-0.813 2.646,-0.794 3.262,-1.971c0.387,-0.736 -0.194,-1.105 -0.82,-0.707c-0.195,0.125 -0.356,0.225 -0.56,0.329c-0.697,0.355 -1.411,0.671 -2.126,0.991c-1.558,0.699 -3.121,1.417 -4.292,2.698c-0.137,0.151 -0.672,0.131 -0.447,-0.115c1.511,-1.651 3.638,-2.416 5.619,-3.337c0.72,-0.335 2.618,-2.059 3.359,-1.046c0.86,1.175 -1.727,2.413 -2.373,2.688c-1.464,0.623 -2.223,1.851 -3.507,2.705zM226.984,136.597c0.031,-0.207 0.586,-0.301 0.552,-0.06c-0.512,3.489 -3.556,6.139 -6.128,8.26c-2.57,2.119 -7.091,4.567 -6.819,8.394c0.016,0.23 -0.535,0.351 -0.549,0.147c-0.248,-3.468 3.081,-5.551 5.46,-7.468c2.963,-2.388 6.891,-5.237 7.484,-9.273zM214.097,159.17c-0.243,-0.13 0.257,-0.378 0.431,-0.283c1.523,0.825 4.618,-0.923 5.826,-1.785c2.119,-1.513 3.517,-4.156 4.746,-6.397c2.446,-4.462 4.471,-9.142 7.073,-13.521c0.102,-0.172 0.658,-0.209 0.516,0.03c-3.359,5.652 -5.58,12.094 -9.485,17.408c-1.383,1.883 -2.899,3.197 -5.111,4.033c-1.101,0.417 -2.839,1.143 -3.996,0.515zM214.892,137.631c0.021,-0.208 0.576,-0.304 0.552,-0.06c-0.338,3.423 -1.456,6.704 -2.019,10.089c-0.64,3.849 -0.597,7.638 0.966,11.266c0.082,0.193 -0.459,0.357 -0.549,0.147c-1.564,-3.63 -1.657,-7.504 -0.969,-11.353c0.604,-3.374 1.682,-6.672 2.019,-10.089z" data-paper-data="{&quot;origPos&quot;:null}" id="Left_Arm_1_" fill="#010101" stroke="none" stroke-width="1"/><path d="M222.314,92.978c-0.027,-0.047 0.359,-0.204 0.411,-0.111c0.479,0.844 0.875,1.854 0.313,2.709c-0.932,1.42 -1.608,3.31 -1.72,5.004c-0.217,3.259 1.029,6.668 4.075,8.21c0.071,0.037 -0.289,0.146 -0.329,0.146c-1.923,0.047 -4.031,-0.277 -5.376,-1.777c-0.052,-0.059 0.325,-0.208 0.389,-0.136c1.318,1.47 3.366,1.804 5.257,1.758c-0.11,0.049 -0.221,0.098 -0.33,0.146c-2.798,-1.416 -4.335,-4.67 -4.13,-7.758c0.115,-1.731 0.583,-3.569 1.479,-5.07c0.342,-0.573 0.691,-0.964 0.502,-1.657c-0.138,-0.506 -0.281,-1.006 -0.541,-1.464zM222.325,92.992c-0.05,-0.046 0.312,-0.206 0.389,-0.135c1.281,1.146 3.22,0.741 4.718,0.314c1.748,-0.497 3.433,-1.18 5.13,-1.827c2.292,-0.875 5.245,-2.271 7.764,-1.616c0.106,0.027 -0.25,0.174 -0.34,0.151c-1.786,-0.465 -3.765,0.259 -5.437,0.856c-1.763,0.628 -3.492,1.356 -5.262,1.967c-1.962,0.676 -5.141,1.919 -6.962,0.29zM254.845,104.31c-0.015,0.117 -0.416,0.147 -0.411,0.106c0.461,-3.594 0.225,-7.104 -1.803,-10.208c-1.121,-1.719 -2.492,-3.256 -3.892,-4.751c-1.655,-1.767 -3.259,-3.719 -5.111,-5.281c-3.552,-2.995 -8.17,-4.221 -12.77,-3.997c-3.245,0.157 -6.57,0.794 -9.558,2.095c-1.949,0.85 -4.987,1.682 -5.036,4.212c-0.001,0.064 -0.147,0.097 -0.191,0.11c-1.449,0.412 -2.129,1.22 -3.24,2.116c-0.074,0.06 -0.45,0.104 -0.371,0.041c0.687,-0.554 1.307,-1.357 2.114,-1.742c0.334,-0.159 0.673,-0.298 1.029,-0.398c0.303,-0.087 0.364,-1.099 0.517,-1.355c1.009,-1.692 3.74,-2.564 5.458,-3.23c5.214,-2.022 11.212,-2.759 16.634,-1.154c2.48,0.735 4.86,2.107 6.661,3.973c2.071,2.142 4.189,4.276 6.117,6.55c1.437,1.696 2.826,3.541 3.49,5.693c0.729,2.361 0.675,4.792 0.363,7.22zM209.614,115.932c-0.037,0.1 -0.427,0.136 -0.404,0.076c0.971,-2.603 2.811,-5.071 3.146,-7.879c0.208,-1.746 -0.094,-3.628 -0.362,-5.371c-0.725,-4.709 -2.697,-9.735 0.45,-13.984c0.072,-0.094 0.423,-0.102 0.406,-0.078c-3.245,4.381 -1.035,9.56 -0.38,14.396c0.236,1.741 0.603,3.654 0.218,5.382c-0.59,2.652 -2.132,4.934 -3.074,7.458zM209.209,116.01c0.033,-0.098 0.426,-0.142 0.407,-0.078c-0.438,1.335 -1.238,2.589 -1.225,4.04c0.01,1.276 0.29,2.522 0.861,3.669c0.842,1.693 2.118,3.909 3.859,4.801c-0.13,0.046 -0.259,0.09 -0.389,0.136c-1.731,-1.111 -1.631,-3.816 -0.09,-5.028c0.035,-0.027 0.391,-0.16 0.391,-0.075c0.028,3.134 2.846,5.052 5.243,6.55c2.861,1.79 5.265,4.027 6.842,7.037c-0.138,0.037 -0.275,0.073 -0.412,0.11c0.16,-1.445 1.614,-2.639 2.476,-3.716c0.075,-0.093 0.421,-0.098 0.405,-0.077c-0.848,1.058 -2.312,2.259 -2.469,3.683c-0.011,0.089 -0.369,0.193 -0.412,0.11c-1.718,-3.279 -4.373,-5.43 -7.428,-7.392c-2.216,-1.424 -4.632,-3.32 -4.657,-6.195c0.13,-0.026 0.261,-0.05 0.391,-0.075c-1.507,1.184 -1.573,3.853 0.108,4.932c0.048,0.031 -0.296,0.182 -0.388,0.136c-1.841,-0.942 -3.353,-3.415 -4.08,-5.269c-0.536,-1.369 -0.779,-2.702 -0.563,-4.166c0.161,-1.091 0.79,-2.093 1.13,-3.133zM250.114,124.038c-0.102,-0.019 0.249,-0.168 0.342,-0.153c2.304,0.436 4.663,0.243 6.937,0.878c-0.122,0.048 -0.243,0.096 -0.364,0.143c-1.8,-0.986 -2.924,-2.687 -4.466,-3.987c-0.072,-0.061 0.288,-0.147 0.329,-0.146c1.705,0.038 3.748,0.314 5.216,1.254c1.433,0.917 1.807,2.041 1.633,3.713c-0.136,0.031 -0.272,0.063 -0.408,0.094c1.511,-2.193 1.72,-5.165 0.315,-7.479c-0.63,-1.037 -1.361,-2.012 -1.989,-3.052c-1.898,-3.144 -4.041,-7.105 -3.222,-10.9c0.02,-0.094 0.421,-0.153 0.405,-0.077c-0.869,4.03 1.604,8.346 3.696,11.616c0.702,1.097 1.646,2.191 2.056,3.445c0.719,2.203 0.465,4.453 -0.857,6.37c-0.038,0.056 -0.415,0.163 -0.408,0.094c0.162,-1.563 -0.134,-2.867 -1.611,-3.688c-1.525,-0.848 -3.364,-1.194 -5.096,-1.233c0.109,-0.048 0.219,-0.097 0.329,-0.146c1.542,1.3 2.666,3.003 4.466,3.988c0.054,0.029 -0.289,0.164 -0.365,0.143c-2.271,-0.633 -4.636,-0.441 -6.938,-0.877z" id="Hair_2_" fill="#010101" stroke="none" stroke-width="1"/><path d="M263.732,146.282c0.044,0.184 -0.368,0.293 -0.411,0.113c-0.492,-2.047 -2.295,-2.78 -4.06,-3.531c-1.265,-0.538 -2.503,-1.161 -3.72,-1.801c-2.525,-1.328 -5.434,-2.959 -6.515,-5.766c-0.066,-0.171 0.343,-0.288 0.412,-0.11c1.262,3.278 5.057,4.99 8.006,6.442c2.279,1.122 5.61,1.833 6.288,4.653zM244.676,136.887c-0.135,-0.144 0.256,-0.308 0.378,-0.177c3.229,3.422 5.95,7.272 9.118,10.744c1.53,1.676 3.24,3.688 5.466,4.41c1.21,0.393 3.942,1.234 5.069,0.266c0.151,-0.129 0.482,-0.007 0.27,0.175c-0.931,0.8 -2.776,0.485 -3.845,0.272c-1.986,-0.395 -3.439,-1.147 -4.936,-2.521c-4.305,-3.947 -7.521,-8.93 -11.52,-13.169zM249.32,135.087c-0.029,0.178 -0.449,0.236 -0.416,0.036c0.488,-2.94 1.099,-5.891 0.909,-8.887c-0.012,-0.192 0.401,-0.288 0.412,-0.111c0.192,3.024 -0.413,5.995 -0.905,8.962zM242.288,129.227c-0.043,-0.185 0.369,-0.292 0.412,-0.109c0.613,2.609 0.315,5.631 2.355,7.592c0.14,0.134 -0.25,0.3 -0.378,0.177c-2.085,-2.006 -1.763,-4.996 -2.389,-7.66zM246.252,125.28c0.039,-0.174 0.459,-0.229 0.416,-0.037c-0.177,0.809 -0.576,1.582 -1.101,2.224c-0.449,0.552 -1.05,1.059 -1.398,1.683c-0.303,0.545 0.265,0.665 0.667,0.49c0.321,-0.14 0.624,-0.313 0.907,-0.519c0.441,-0.32 1.011,-0.712 1.24,-1.229c0.07,-0.157 0.485,-0.169 0.392,0.04c-0.287,0.646 -1.058,1.194 -1.638,1.55c-0.441,0.271 -1.192,0.753 -1.74,0.494c-0.686,-0.325 -0.132,-1.032 0.178,-1.4c0.854,-1.016 1.782,-1.947 2.077,-3.296zM250.254,126.189c0.133,0.148 -0.258,0.311 -0.378,0.176c-0.895,-0.998 -2.487,-0.733 -3.679,-1.021c-0.248,-0.06 0.073,-0.308 0.24,-0.267c1.272,0.307 2.855,0.039 3.817,1.112zM249.744,125.806c0.073,0.166 -0.335,0.285 -0.412,0.11c-0.165,-0.375 -0.168,-1.602 -0.619,-1.7c-0.824,-0.178 -1.658,-0.258 -2.499,-0.294c-0.279,-0.011 -0.045,-0.294 0.146,-0.286c0.954,0.04 1.895,0.144 2.823,0.37c0.343,0.083 0.428,1.497 0.561,1.8zM245.749,123.903c0.038,-0.174 0.458,-0.23 0.416,-0.037c-0.25,1.164 -0.972,2.195 -1.779,3.049c-0.424,0.45 -0.867,0.889 -1.357,1.268c-1,0.775 0.128,0.877 0.901,0.856c0.281,-0.007 0.189,0.281 -0.04,0.287c-0.692,0.02 -1.683,0.178 -1.832,-0.716c-0.01,-0.059 0.023,-0.11 0.071,-0.143c1.54,-1.048 3.215,-2.678 3.62,-4.564zM248.715,124.012c0.06,0.175 -0.351,0.29 -0.412,0.111c-0.126,-0.366 -0.35,-0.687 -0.581,-0.992c-0.124,-0.161 0.27,-0.319 0.378,-0.177c0.247,0.325 0.48,0.67 0.615,1.058zM248.022,122.841c0.242,0.096 -0.075,0.333 -0.24,0.266c-1.031,-0.402 -2.154,-0.384 -3.221,-0.649c-0.247,-0.061 0.073,-0.309 0.241,-0.267c1.068,0.265 2.185,0.245 3.22,0.65zM242.255,126.821c-0.092,0.142 -0.513,0.149 -0.392,-0.039c0.926,-1.445 2.327,-2.684 2.468,-4.49c0.014,-0.178 0.432,-0.241 0.416,-0.036c-0.143,1.84 -1.549,3.094 -2.492,4.565zM247.634,122.706c0.181,0.146 -0.185,0.338 -0.321,0.23c-0.715,-0.579 -1.388,-1.402 -2.351,-1.533c-0.277,-0.038 -0.048,-0.313 0.146,-0.287c1.05,0.144 1.744,0.957 2.526,1.59zM245,121.125c0.251,-0.078 0.321,0.191 0.072,0.267c-1.777,0.543 -3.341,1.531 -5.03,2.277c-0.207,0.091 -0.438,-0.115 -0.179,-0.229c1.724,-0.76 3.323,-1.761 5.137,-2.315zM239.746,123.61c-0.06,-0.175 0.35,-0.291 0.412,-0.112c0.592,1.735 2.816,0.566 3.757,-0.23c0.151,-0.127 0.483,-0.005 0.27,0.175c-1.11,0.939 -3.75,2.182 -4.439,0.167zM265.038,152.235c-0.086,0.149 -0.505,0.156 -0.391,-0.038c1.806,-3.076 0.396,-6.389 -1.958,-8.718c-2.083,-2.061 -3.721,-4.412 -5.48,-6.744c-0.123,-0.163 0.271,-0.319 0.378,-0.177c1.023,1.357 1.98,2.768 3.049,4.089c1.014,1.255 2.26,2.307 3.251,3.573c1.88,2.396 2.782,5.239 1.151,8.015zM240.455,124.569c0.05,-0.172 0.47,-0.221 0.415,-0.036c-0.453,1.542 1.27,2.494 1.687,3.8c0.057,0.179 -0.354,0.292 -0.411,0.111c-0.426,-1.334 -2.158,-2.286 -1.691,-3.875zM242.984,125.422c0.07,0.167 -0.338,0.286 -0.412,0.11c-0.144,-0.343 -0.419,-0.582 -0.766,-0.703c-0.244,-0.085 0.073,-0.326 0.24,-0.267c0.43,0.152 0.761,0.437 0.938,0.86zM247.064,127.946c0.093,-0.139 0.514,-0.143 0.39,0.039c-1.255,1.88 -3.103,4.146 -1.521,6.378c0.119,0.169 -0.275,0.323 -0.377,0.178c-1.634,-2.306 0.194,-4.628 1.508,-6.595zM241.803,126.898c-0.141,-0.132 0.248,-0.298 0.378,-0.179c0.46,0.431 1.198,0.246 1.71,0.017c0.205,-0.091 0.437,0.114 0.178,0.229c-0.699,0.311 -1.651,0.509 -2.266,-0.067z" id="Right_Arm_1_" fill="#010101" stroke="none" stroke-width="1"/><path d="M257.113,170.762c0.208,0.005 -0.173,0.178 -0.266,0.175c-0.961,-0.023 -2.664,2.007 -3.399,2.607c-0.683,0.558 -1.368,1.125 -2.096,1.627c-1.242,0.858 -2.575,1.499 -4.023,1.934c-3.142,0.945 -6.354,1.393 -9.625,1.549c-3.425,0.165 -7.024,0.205 -10.377,-0.618c-1.195,-0.294 -2.602,-0.689 -3.502,-1.589c-0.323,-0.32 -0.625,-0.703 -0.735,-1.157c-0.162,-0.668 0.887,-1.949 1.245,-2.504c0.068,-0.102 0.443,-0.123 0.407,-0.067c-0.478,0.735 -1.575,2.034 -1.051,2.923c0.275,0.468 0.665,0.85 1.127,1.135c1.188,0.728 2.583,1.091 3.947,1.321c3.498,0.591 7.12,0.564 10.647,0.286c3.409,-0.271 7.213,-0.717 10.252,-2.378c1.69,-0.925 3.258,-2.203 4.687,-3.485c0.842,-0.757 1.532,-1.785 2.762,-1.759zM256.486,167.122c0.033,0.085 -0.372,0.215 -0.412,0.111c-0.869,-2.248 -1.729,-4.5 -2.596,-6.749c-0.69,-1.792 -1.52,-3.455 -1.564,-5.402c-0.048,-2.111 0.135,-4.219 0.119,-6.33c-0.01,-1.243 0.165,-3.494 -0.975,-4.351c-0.069,-0.052 0.292,-0.214 0.387,-0.144c1.16,0.873 1.001,3.119 0.999,4.383c-0.002,2.11 -0.195,4.223 -0.118,6.331c0.071,1.952 0.868,3.596 1.564,5.401c0.867,2.25 1.725,4.501 2.596,6.75zM256.759,173.015c-0.04,0.108 -0.438,0.155 -0.406,0.07c0.4,-1.095 1.132,-2.049 1.558,-3.138c0.554,-1.416 -0.922,-2.066 -1.908,-2.797c-0.069,-0.051 0.292,-0.214 0.387,-0.144c0.849,0.631 2.511,1.382 2.006,2.67c-0.452,1.154 -1.212,2.178 -1.637,3.339zM224.479,172.943c-0.076,0.069 -0.468,0.109 -0.374,0.026c0.658,-0.576 0.69,-1.094 0.504,-1.882c-0.06,-0.261 0.094,-0.37 0.241,-0.51c0.091,-0.087 0.226,-0.128 0.341,-0.168c0.676,-0.234 0.497,-0.805 0.266,-1.284c-0.334,-0.692 -0.296,-1.34 0.225,-1.954c0.706,-0.834 1.274,-1.632 1.586,-2.694c0.666,-2.264 0.776,-4.779 0.351,-7.103c-0.42,-2.3 -1.895,-3.893 -2.819,-5.971c-0.036,-0.08 0.364,-0.217 0.412,-0.11c1.036,2.332 2.634,4.049 2.922,6.689c0.23,2.1 0.227,4.4 -0.459,6.425c-0.327,0.965 -0.76,1.724 -1.411,2.493c-0.408,0.483 -0.848,1.176 -0.531,1.833c0.18,0.374 0.364,0.686 0.401,1.104c0.065,0.74 -1.377,0.479 -1.048,1.41c0.247,0.704 -0.08,1.235 -0.607,1.696zM253.478,139.831c-0.274,0.006 0.06,-0.172 0.176,-0.176c3.918,-0.098 4.121,-5.962 4.168,-8.708c0.002,-0.125 0.413,-0.185 0.412,-0.111c-0.055,3.188 -0.436,8.887 -4.756,8.995zM258.343,131.189c0.027,0.102 -0.385,0.21 -0.413,0.11c-0.29,-1.117 -1.465,-1.439 -2.415,-1.834c-0.913,-0.38 -1.787,-0.925 -2.526,-1.583c-1.326,-1.179 -2.141,-2.496 -3.144,-3.938c-2.354,-3.388 -6.139,-3.96 -9.736,-1.908c-0.079,0.045 -0.495,0.082 -0.317,-0.019c3.241,-1.85 7.058,-2.131 9.717,0.868c1.191,1.341 1.913,3.022 3.226,4.264c1.102,1.043 2.257,1.789 3.659,2.371c0.842,0.35 1.702,0.72 1.949,1.669zM232.147,130.214c-0.071,-0.077 0.314,-0.222 0.386,-0.143c2.478,2.763 9.048,2.5 9.186,-1.966c0.005,-0.126 0.414,-0.183 0.412,-0.11c-0.146,4.731 -7.361,5.143 -9.984,2.219zM223.727,142.372c0.034,0.086 -0.371,0.214 -0.412,0.11c-1.047,-2.774 -5.517,-4.705 -8.28,-4.792c-0.208,-0.007 0.172,-0.179 0.265,-0.176c1.624,0.052 3.267,0.692 4.685,1.453c1.447,0.777 3.133,1.79 3.742,3.405zM212.016,137.625c-0.054,0.109 -0.443,0.141 -0.406,0.07c0.881,-1.739 1.251,-3.657 1.494,-5.578c0.208,-1.642 0.123,-3.247 1.005,-4.713c0.063,-0.105 0.443,-0.13 0.407,-0.069c-0.953,1.582 -0.806,3.42 -1.077,5.19c-0.272,1.773 -0.606,3.491 -1.423,5.1zM211.607,137.716c-0.037,-0.072 0.356,-0.218 0.412,-0.11c0.614,1.196 1.554,2.01 2.679,2.713c0.065,0.04 -0.284,0.207 -0.387,0.143c-1.137,-0.71 -2.085,-1.54 -2.704,-2.746zM224.719,141.496c-0.066,0.077 -0.463,0.129 -0.373,0.025c0.752,-0.869 0.105,-2.414 -0.61,-3.078c-0.657,-0.611 -1.427,-1.033 -2.237,-1.409c-0.056,-0.025 0.274,-0.195 0.386,-0.143c0.975,0.452 2.105,1.011 2.697,1.955c0.447,0.713 0.752,1.939 0.137,2.65z" id="Shirt_2_" fill="#010101" stroke="none" stroke-width="1"/><path d="M245.622,100.292c-0.027,-0.033 0.336,-0.208 0.412,-0.111c1.131,1.446 2.641,2.912 3.023,4.781c0.412,2.011 -0.053,4.083 -0.978,5.892c-0.997,1.945 -2.274,3.733 -3.73,5.359c-0.965,1.076 -1.943,2.236 -3.313,2.792c-0.093,0.038 -0.485,0.056 -0.235,-0.046c1.792,-0.726 3.369,-2.776 4.485,-4.281c1.149,-1.548 2.317,-3.2 2.944,-5.042c0.621,-1.825 0.912,-3.932 0.002,-5.721c-0.683,-1.342 -1.689,-2.445 -2.61,-3.623zM238.166,119.123c-0.103,-0.013 0.244,-0.166 0.341,-0.155c0.705,0.084 1.404,0.13 2.109,0.021c0.29,-0.044 0.083,0.119 -0.079,0.144c-0.794,0.122 -1.576,0.084 -2.371,-0.01zM243.13,109.978c-0.065,-0.032 0.114,-0.108 0.125,-0.112c0.073,-0.026 0.187,-0.062 0.264,-0.026c0.292,0.136 0.487,0.398 0.482,0.727c-0.001,0.114 -0.412,0.169 -0.412,0.11c0.005,-0.319 -0.174,-0.566 -0.459,-0.699zM242.797,113.625c0.108,0.02 -0.245,0.171 -0.339,0.155c-2.182,-0.401 -4.266,-0.739 -6.457,-0.155c-0.239,0.064 -0.27,-0.055 -0.031,-0.118c2.316,-0.619 4.503,-0.308 6.827,0.118zM240.645,119.103c-0.152,0.06 -0.412,0.023 -0.139,-0.086c1.904,-0.753 3.592,-2.739 4.779,-4.339c1.149,-1.547 2.317,-3.199 2.944,-5.042c0.621,-1.826 0.912,-3.932 0.002,-5.721c-0.683,-1.342 -1.689,-2.446 -2.61,-3.624c-0.026,-0.033 0.336,-0.206 0.412,-0.11c1.216,1.556 2.845,3.145 3.109,5.203c0.263,2.056 -0.293,4.09 -1.28,5.892c-1.568,2.861 -4.029,6.567 -7.217,7.827zM240.666,118.981c0.268,-0.033 -0.08,0.145 -0.18,0.157c-2.825,0.36 -5.956,-0.674 -8.59,-1.591c-2.466,-0.859 -5.323,-1.878 -7.104,-3.886c-0.059,-0.066 0.322,-0.213 0.388,-0.138c1.757,1.981 4.611,3.044 7.055,3.869c2.585,0.872 5.672,1.939 8.431,1.589zM224.972,111.98c-0.01,-0.105 0.405,-0.181 0.413,-0.11c0.315,3.303 -4.194,2.316 -5.812,0.962c-1.823,-1.526 -2.504,-5.96 0.88,-5.431c0.106,0.016 -0.245,0.17 -0.339,0.155c-1.697,-0.266 -1.928,1.609 -1.618,2.81c0.236,0.911 0.678,1.766 1.465,2.327c0.788,0.563 1.662,0.919 2.618,1.09c0.699,0.127 1.998,0.378 2.295,-0.511c0.157,-0.466 0.143,-0.818 0.098,-1.292zM225.36,112.003c0.012,0.102 -0.403,0.184 -0.412,0.11c-0.132,-1.121 -1.659,0.293 -2.201,0.453c-0.764,0.227 -1.492,0.196 -2.125,-0.333c-0.056,-0.046 0.305,-0.207 0.388,-0.138c0.785,0.654 1.675,0.395 2.464,-0.122c0.255,-0.167 0.53,-0.351 0.823,-0.443c0.529,-0.165 0.985,-0.194 1.063,0.473zM219.427,110.312c0.028,0.069 -0.372,0.206 -0.412,0.111c-0.377,-0.909 0.508,-1.423 1.263,-1.639c1.191,-0.34 2.312,0.648 3.391,0.978c0.115,0.035 -0.248,0.183 -0.339,0.155c-0.628,-0.192 -1.183,-0.519 -1.787,-0.769c-0.652,-0.269 -1.703,-0.484 -2.108,0.343c-0.146,0.297 -0.131,0.526 -0.008,0.821zM239.987,89.88c-0.114,-0.029 0.247,-0.179 0.34,-0.156c4.64,1.244 5.117,6.428 5.734,10.494c0.015,0.099 -0.4,0.187 -0.412,0.11c-0.607,-3.999 -1.074,-9.219 -5.662,-10.448zM225.895,102.189c-0.036,0.102 -0.43,0.144 -0.406,0.075c0.919,-2.597 4.619,-4.694 7.381,-4.027c0.112,0.026 -0.247,0.176 -0.339,0.154c-2.571,-0.62 -5.79,1.404 -6.636,3.798zM240.466,97.755c-0.065,0.07 -0.452,0.122 -0.371,0.036c1.359,-1.445 3.813,-1.276 5.279,-0.083c0.055,0.044 -0.304,0.206 -0.388,0.138c-1.248,-1.016 -3.305,-1.382 -4.52,-0.091zM234.154,113.024c0.03,0.057 -0.359,0.208 -0.411,0.111c-0.166,-0.306 -0.128,-0.812 0.209,-0.996c0.087,-0.049 0.191,-0.081 0.291,-0.079c0.075,0 0.092,0.044 0.022,0.083c-0.122,0.067 -0.189,0.272 -0.203,0.401c-0.017,0.172 0.009,0.326 0.092,0.48zM235.544,112.766c-0.239,0.06 -0.272,-0.058 -0.032,-0.117c2.423,-0.611 5.22,-2.775 7.835,-1.982c0.114,0.034 -0.249,0.183 -0.34,0.155c-2.452,-0.744 -5.126,1.355 -7.463,1.944zM242.678,112.703c-0.012,-0.103 0.403,-0.184 0.412,-0.11c0.195,1.568 -1.402,2.193 -2.684,2.43c-2.377,0.44 -4.441,-1.526 -6.565,-2.248c-0.116,-0.04 0.249,-0.186 0.339,-0.156c1.715,0.584 3.213,1.814 4.984,2.223c1.445,0.335 3.74,-0.327 3.514,-2.139zM243.118,112.783c0.014,0.101 -0.401,0.185 -0.412,0.11c-0.109,-0.83 0,-2.079 0.792,-2.56c0.071,-0.043 0.485,-0.098 0.314,0.006c-0.728,0.441 -0.793,1.694 -0.694,2.444zM243.038,110.895c0.153,-0.056 0.417,-0.015 0.141,0.087c-1.977,0.711 -4.202,1.335 -6.269,1.68c-0.559,0.093 -1.139,0.106 -1.703,0.138c-0.226,0.014 -0.453,0.019 -0.677,0.04c0.24,-0.022 0.469,-0.159 0.778,-0.167c0.197,-0.005 -0.188,0.16 -0.269,0.162c-0.196,0.005 -0.403,0.024 -0.599,0.011c-0.207,-0.014 0.164,-0.155 0.225,-0.16c2.831,-0.266 5.683,-0.823 8.373,-1.791zM242.501,114.707c0.024,-0.101 0.425,-0.156 0.406,-0.075c-0.335,1.328 -2.879,2.039 -3.983,1.43c-0.044,-0.024 0.286,-0.194 0.389,-0.138c0.923,0.511 2.901,-0.079 3.188,-1.217zM229.472,116.611c-0.003,-0.11 0.41,-0.173 0.411,-0.11c0.022,0.798 0.126,1.669 -0.048,2.459c-0.159,0.72 -0.491,1.403 -0.758,2.089c-0.04,0.102 -0.431,0.141 -0.406,0.075c0.263,-0.672 0.631,-1.371 0.759,-2.089c0.141,-0.793 0.064,-1.625 0.042,-2.424zM241.075,122.987c0.027,0.036 -0.339,0.208 -0.412,0.111c-0.332,-0.445 -0.8,-0.879 -1.022,-1.397c-0.31,-0.72 -0.314,-1.573 -0.375,-2.342c-0.008,-0.106 0.407,-0.18 0.412,-0.11c0.059,0.743 0.038,1.651 0.374,2.341c0.251,0.516 0.682,0.94 1.023,1.397zM241.374,108.183c0.016,-0.121 0.417,-0.155 0.412,-0.111c-0.074,0.607 -0.607,1.09 -1.191,1.231c-0.721,0.173 -1.295,-0.055 -2.004,-0.126c-0.101,-0.01 0.245,-0.165 0.34,-0.155c0.39,0.039 0.748,0.201 1.152,0.207c0.661,0.011 1.214,-0.415 1.291,-1.046zM238.521,107.696c-0.07,0.044 -0.484,0.1 -0.314,-0.006c0.946,-0.584 2.023,-0.966 3.145,-0.806c0.105,0.014 -0.244,0.168 -0.339,0.154c-0.908,-0.129 -1.731,0.188 -2.492,0.658zM238.331,109.672c-0.065,0.064 -0.191,0.089 -0.276,0.097c-0.039,0.003 -0.161,0.002 -0.096,-0.061c0.161,-0.161 0.324,-0.337 0.526,-0.447c0.087,-0.047 0.191,-0.079 0.291,-0.078c0.075,0 0.092,0.045 0.023,0.083c-0.179,0.098 -0.325,0.263 -0.468,0.406z" id="Head_1_" fill="#010101" stroke="none" stroke-width="1"/><path d="M241.597,186.745c-0.212,0.116 -0.431,-0.127 -0.188,-0.261c2.546,-1.401 5.206,-2.56 7.924,-3.583c0.22,-0.083 0.451,0.162 0.188,0.261c-2.718,1.024 -5.379,2.181 -7.924,3.583zM252.959,212.707c-0.07,0.183 -0.484,0.171 -0.397,-0.054c1.235,-3.236 2.028,-6.618 2.947,-9.952c1.011,-3.674 1.728,-7.5 1.916,-11.311c0.171,-3.452 -0.021,-6.9 -0.18,-10.348c-0.149,-3.223 -0.332,-6.591 -1.742,-9.551c-0.097,-0.207 0.291,-0.366 0.376,-0.188c1.305,2.742 1.591,5.814 1.741,8.808c0.179,3.552 0.426,7.134 0.251,10.696c-0.189,3.841 -0.796,7.707 -1.819,11.419c-0.968,3.505 -1.794,7.076 -3.093,10.481zM232.69,214.436c-0.066,0.182 -0.479,0.172 -0.395,-0.059c1.865,-5.165 5.004,-9.872 7.332,-14.846c2.203,-4.705 4.335,-9.579 5.426,-14.682c0.041,-0.193 0.463,-0.239 0.417,-0.025c-1.094,5.127 -3.217,10.043 -5.447,14.766c-2.343,4.96 -5.469,9.683 -7.333,14.846zM220.198,213.079c-0.047,0.192 -0.47,0.236 -0.419,0.026c0.642,-2.612 0.768,-5.309 1.214,-7.954c0.519,-3.083 1.368,-6.096 1.714,-9.208c0.374,-3.354 0.305,-6.696 0.458,-10.056c0.14,-3.087 0.481,-6.155 0.999,-9.201c0.034,-0.197 0.455,-0.245 0.418,-0.027c-0.544,3.206 -0.929,6.455 -1.018,9.708c-0.087,3.19 -0.049,6.374 -0.438,9.55c-0.396,3.235 -1.297,6.363 -1.773,9.583c-0.375,2.525 -0.544,5.093 -1.155,7.579zM252.367,219.201c0.03,-0.197 0.452,-0.244 0.418,-0.027c-0.882,5.747 0.366,11.701 1.012,17.42c0.397,3.514 0.866,7.22 1.943,10.6c0.063,0.199 -0.348,0.311 -0.412,0.11c-1.093,-3.434 -1.622,-7.248 -1.967,-10.827c-0.551,-5.713 -1.876,-11.532 -0.994,-17.276zM242.092,218.652c0.011,0.197 -0.405,0.252 -0.418,0.027c-0.205,-3.79 0.532,-7.566 0.121,-11.354c-0.186,-1.712 -0.482,-3.408 -0.816,-5.098c-0.294,-1.486 -0.339,-2.934 -0.525,-4.432c-0.027,-0.208 0.386,-0.312 0.411,-0.109c0.229,1.831 0.383,3.627 0.722,5.449c0.286,1.535 0.555,3.08 0.671,4.639c0.27,3.634 -0.362,7.246 -0.166,10.878zM241.819,213.521c0.009,-0.199 0.428,-0.251 0.418,-0.026c-0.118,2.819 -1.486,5.354 -1.77,8.14c-0.298,2.925 -0.262,5.856 -0.162,8.792c0.093,2.73 0.131,5.703 1.176,8.277c0.474,1.171 1.559,2.897 1.238,4.207c-0.046,0.192 -0.47,0.236 -0.418,0.025c0.374,-1.526 -1.079,-3.329 -1.461,-4.756c-0.68,-2.544 -0.868,-5.104 -0.952,-7.729c-0.101,-3.075 -0.266,-6.275 0.225,-9.331c0.415,-2.578 1.597,-4.968 1.706,-7.599zM221.857,220.063c0.013,-0.198 0.433,-0.251 0.418,-0.024c-0.135,1.972 0.451,4.5 2.517,5.248c0.249,0.091 -0.045,0.358 -0.233,0.291c-2.188,-0.794 -2.847,-3.41 -2.702,-5.515zM212.144,266.558c-0.241,-0.115 0.051,-0.378 0.235,-0.295c1.135,0.533 2.387,1.249 3.658,1.387c1.101,0.119 2.179,-0.142 3.251,-0.366c0.257,-0.052 0.342,0.247 0.081,0.302c-1.109,0.231 -2.328,0.569 -3.471,0.381c-1.327,-0.219 -2.547,-0.846 -3.754,-1.409zM226.418,264.252c0.011,0.197 -0.406,0.253 -0.419,0.02c-0.1,-1.767 -0.051,-2.842 0.812,-4.399c0.222,-0.401 1.248,-2.161 0.596,-2.529c-0.932,-0.527 -1.903,0.29 -2.65,0.711c-2.45,1.389 -6.243,0.728 -8.878,0.219c-0.274,-0.052 -0.076,-0.357 0.138,-0.316c2.372,0.459 5.389,0.956 7.746,0.227c0.998,-0.305 2.002,-1.502 3.106,-1.404c1.128,0.1 1.258,0.808 0.97,1.715c-0.279,0.885 -0.832,1.59 -1.179,2.434c-0.456,1.107 -0.307,2.162 -0.242,3.322zM217.42,264.278c-0.28,0.027 -0.206,-0.299 0.032,-0.319c4.074,-0.36 8.537,-2.261 9.862,-6.452c0.059,-0.185 0.47,-0.175 0.396,0.057c-1.377,4.356 -6.061,6.343 -10.29,6.714zM231.695,221.875c0.043,-0.194 0.466,-0.239 0.418,-0.026c-0.597,2.643 -1.195,5.282 -1.793,7.924c-0.565,2.499 -1.441,5.105 -1.731,7.652c-0.609,5.357 -1.219,10.716 -1.829,16.071c-0.023,0.197 -0.444,0.249 -0.418,0.027c0.305,-2.682 0.609,-5.36 0.914,-8.039c0.3,-2.625 0.332,-5.46 0.916,-8.04c1.174,-5.188 2.349,-10.38 3.523,-15.569zM212.419,256.87c0.279,-0.038 0.202,0.288 -0.031,0.32c-1.02,0.138 -2.271,0.38 -2.365,1.634c-0.065,0.868 0.166,1.685 0.202,2.542c0.042,1.027 -0.156,2.162 0.052,3.172c0.229,1.114 1.654,1.569 2.531,2.067c0.207,0.116 -0.147,0.343 -0.314,0.247c-1.087,-0.617 -2.508,-1.088 -2.659,-2.491c-0.154,-1.425 -0.087,-2.891 -0.208,-4.326c-0.181,-2.139 0.742,-2.888 2.792,-3.165zM219.815,213.024c0.12,-0.161 0.507,-0.078 0.347,0.132c-2.619,3.497 -3.75,7.858 -4.513,12.091c-0.364,2.023 -0.627,4.063 -0.985,6.087c-0.206,1.157 -0.43,2.312 -0.601,3.475c-0.168,1.143 -0.174,2.352 -0.449,3.472c-0.501,2.035 -1.658,3.885 -1.909,5.986c-0.198,1.663 -0.616,3.25 -0.621,4.936c-0.009,2.808 0.327,5.711 -0.512,8.423c-0.058,0.186 -0.469,0.177 -0.396,-0.058c0.935,-3.024 0.299,-6.255 0.532,-9.378c0.131,-1.749 0.431,-3.603 0.872,-5.294c0.541,-2.077 1.575,-3.842 1.806,-6.023c0.26,-2.465 0.784,-4.886 1.153,-7.335c0.303,-2.013 0.607,-4.029 1.037,-6.019c0.802,-3.713 1.933,-7.42 4.239,-10.495zM240.043,258.039c-0.149,-0.154 0.239,-0.328 0.376,-0.182c2.658,2.769 6.552,3.69 10.25,2.773c1.517,-0.377 8.228,-1.986 6.636,-4.379c-0.124,-0.188 0.266,-0.355 0.376,-0.188c1.783,2.68 -4.595,4.227 -6.151,4.661c-4.133,1.149 -8.437,0.493 -11.487,-2.685zM240.404,257.967c-0.134,0.144 -0.527,0.057 -0.348,-0.136c0.727,-0.79 1.162,-1.656 0.908,-2.773c-0.178,-0.786 -0.689,-1.414 -0.899,-2.189c-0.179,-0.66 0.301,-1.592 0.96,-1.769c0.256,-0.068 0.336,0.236 0.081,0.302c-1.618,0.436 0.281,2.964 0.313,3.923c0.042,1.246 -0.209,1.769 -1.015,2.642zM240.78,251.585c-0.212,0.116 -0.432,-0.128 -0.187,-0.262c0.872,-0.474 2.032,-0.26 2.99,-0.271c1.331,-0.014 2.665,0.014 3.996,-0.073c3.126,-0.204 6.124,-0.829 8.926,-2.268c0.214,-0.11 0.437,0.134 0.188,0.262c-2.247,1.155 -4.674,1.868 -7.184,2.153c-1.475,0.166 -2.955,0.244 -4.44,0.239c-1.176,-0.006 -3.226,-0.358 -4.289,0.22zM257.625,253.783c-0.02,0.197 -0.442,0.249 -0.419,0.026c0.085,-0.83 -0.554,-1.181 0.098,-1.909c0.813,-0.907 -0.552,-2.309 -0.917,-3.173c-0.079,-0.186 0.33,-0.302 0.412,-0.11c0.392,0.928 1.259,1.769 1.186,2.831c-0.021,0.319 -0.296,0.492 -0.458,0.726c-0.331,0.477 0.151,1.098 0.098,1.609zM241.008,238.896c-0.098,-0.203 0.291,-0.361 0.377,-0.181c0.502,1.03 0.62,2.236 0.337,3.356c-0.154,0.606 -0.355,1.16 -0.677,1.701c-0.263,0.442 -0.716,0.721 -0.779,1.274c-0.235,2.059 1.337,3.984 1.001,6.003c-0.032,0.195 -0.454,0.244 -0.418,0.024c0.322,-1.932 -1.254,-3.785 -1.03,-5.744c0.108,-0.957 0.808,-1.352 1.154,-2.218c0.54,-1.351 0.688,-2.872 0.035,-4.215zM256.685,248.929c-0.071,0.182 -0.484,0.173 -0.396,-0.057c0.096,-0.255 0.789,-1.188 0.218,-1.301c-0.352,-0.07 -0.757,-0.021 -1.089,-0.176c-0.242,-0.11 0.05,-0.376 0.233,-0.29c0.381,0.176 1.053,-0.039 1.343,0.323c0.401,0.501 -0.129,1.026 -0.309,1.501zM247.764,254.847c-0.246,-0.097 0.048,-0.365 0.233,-0.291c1.535,0.614 3.528,0.003 5.042,-0.442c1.479,-0.435 3.404,-0.86 4.173,-2.337c0.089,-0.17 0.508,-0.156 0.396,0.059c-0.838,1.605 -2.864,2.125 -4.488,2.581c-1.631,0.458 -3.698,1.095 -5.356,0.43zM226.444,256.957c-0.114,0.166 -0.498,0.082 -0.348,-0.136c0.493,-0.716 0.834,-1.332 0.526,-2.224c-0.175,-0.509 -0.362,-0.949 -0.245,-1.49c0.043,-0.194 0.465,-0.239 0.419,-0.024c-0.179,0.814 0.427,1.527 0.359,2.353c-0.049,0.614 -0.371,1.031 -0.711,1.521zM257.217,253.861c-0.005,-0.198 0.413,-0.254 0.418,-0.025c0.017,0.808 -0.541,1.62 0.108,2.312c0.149,0.16 -0.24,0.332 -0.375,0.188c-0.704,-0.753 -0.133,-1.596 -0.151,-2.475zM250.405,221.504c-0.161,0.147 -0.484,-0.018 -0.277,-0.206c1.343,-1.22 3.138,-2.869 3.307,-4.814c0.142,-1.619 -0.639,-3.103 -0.416,-4.728c0.027,-0.196 0.449,-0.245 0.418,-0.025c-0.261,1.902 0.92,3.732 0.193,5.601c-0.661,1.695 -1.898,2.966 -3.225,4.172zM230.214,225.34c-0.07,0.185 -0.484,0.174 -0.396,-0.057c0.69,-1.817 2.186,-3.171 2.878,-4.966c0.97,-2.515 -0.481,-4.927 -0.307,-7.489c0.014,-0.197 0.434,-0.251 0.419,-0.025c-0.164,2.406 1.323,4.881 0.411,7.244c-0.74,1.915 -2.274,3.371 -3.005,5.293z" id="Pants_2_" fill="#010101" stroke="none" stroke-width="1"/></g></g></svg>