<svg version="1.1" xmlns="http://www.w3.org/2000/svg" xmlns:xlink="http://www.w3.org/1999/xlink" width="81.42746" height="68.29388" viewBox="0,0,81.42746,68.29388"><g transform="translate(-155.38482,-132.87292)"><g data-paper-data="{&quot;isPaintingLayer&quot;:true}" fill="none" fill-rule="nonzero" stroke="none" stroke-width="none" stroke-linecap="none" stroke-linejoin="miter" stroke-miterlimit="10" stroke-dasharray="" stroke-dashoffset="0" font-family="none" font-weight="none" font-size="none" text-anchor="none" style="mix-blend-mode: normal"><path d="M201.6639,183.2069c6.1127,0 11.652,1.0059 15.663,2.6319c4.0104,1.6252 6.4933,3.8706 6.4933,6.348c0,2.4774 -2.4829,4.7228 -6.4933,6.3481c-4.011,1.626 -9.5503,2.6319 -15.663,2.6319c-6.1128,0 -11.652,-1.0059 -15.6631,-2.6319c-4.0104,-1.6253 -6.4932,-3.8707 -6.4932,-6.3481c0,-2.4774 2.4828,-4.7228 6.4932,-6.348c4.0111,-1.626 9.5503,-2.6319 15.6631,-2.6319z" id="ID0.2171387574635446" fill="#703d00" stroke="none" stroke-width="0.71225" stroke-linecap="butt"/><path d="M195.194,154.8789c9.4336,-0.1474 18.9139,-0.0187 28.335,0.4073c2.3584,0.1075 5.9445,-1.2894 5.7927,0.8145c-0.6071,8.4114 -4.53,16.8146 -7.9481,24.8831c-1.8896,4.58 -2.768,11.421 -7.9033,13.5208c-8.4924,3.2466 -18.7343,2.0958 -27.9309,0.8145c-3.3427,-0.4879 -5.4335,-3.2759 -7.2746,-5.4572c-3.0993,-3.6628 -5.3446,-7.9096 -7.3195,-11.8103c-3.3319,-6.6618 -8.1448,-13.3457 -9.1606,-20.2812c-0.2766,-1.8897 3.534,-1.7838 5.8825,-2.077c9.0816,-1.0703 18.4614,-0.6744 27.5268,-0.8145z" id="ID0.43220555409789085" fill="#a85b00" stroke="#a85b00" stroke-width="1.71046" stroke-linecap="round"/><path d="M197.1782,157.6907c8.6118,0 16.4161,0.9448 22.0671,2.4704c5.651,1.5264 9.1488,3.6343 9.1488,5.9598c0,2.3254 -3.4978,4.4333 -9.1488,5.9597c-5.651,1.5256 -13.4553,2.4704 -22.0671,2.4704c-8.6118,0 -16.4161,-0.9448 -22.0671,-2.4704c-5.651,-1.5264 -9.1489,-3.6343 -9.1489,-5.9597c0,-2.3255 3.4979,-4.4334 9.1489,-5.9598c5.651,-1.5256 13.4553,-2.4704 22.0671,-2.4704z" id="ID0.8022473398596048" fill="#703d00" stroke="none" stroke-width="0.92352" stroke-linecap="butt"/><path d="M196.2794,133.7819c11.0952,0.3166 21.7787,5.1405 31.3235,10.2381c4.2472,2.5836 8.8301,7.3163 8.2506,11.8081c-0.5814,4.4824 -4.4563,6.7984 -11.6544,9.1377c-7.1992,2.3401 -17.1402,3.7889 -28.1115,3.7889c-10.9714,0 -20.9124,-1.4488 -28.1115,-3.7889c-7.1982,-2.3393 -12.0977,-4.5452 -11.6545,-9.1377c0.6476,-6.0895 7.4966,-10.6742 13.0954,-14.045c8.1816,-4.232 17.6007,-8.2679 26.8624,-8.0012z" id="ID0.818717781919986" fill="#ff66ab" stroke="#a85b00" stroke-width="1.81796" stroke-linecap="round"/><path d="M182.36565,153.93244c0,-1.38071 1.11929,-2.5 2.5,-2.5c1.38071,0 2.5,1.11929 2.5,2.5c0,1.38071 -1.11929,2.5 -2.5,2.5c-1.38071,0 -2.5,-1.11929 -2.5,-2.5z" fill="#ff66ab" stroke="none" stroke-width="0.5" stroke-linecap="butt"/></g></g></svg>