<svg version="1.1" xmlns="http://www.w3.org/2000/svg" xmlns:xlink="http://www.w3.org/1999/xlink" width="63.38381" height="201.34606" viewBox="0,0,63.38381,201.34606"><g transform="translate(-208.99958,-80.00039)"><g data-paper-data="{&quot;isPaintingLayer&quot;:true}" fill="none" fill-rule="nonzero" stroke="none" stroke-width="none" stroke-linecap="butt" stroke-linejoin="miter" stroke-miterlimit="10" stroke-dasharray="" stroke-dashoffset="0" font-family="none" font-weight="none" font-size="none" text-anchor="none" style="mix-blend-mode: normal"><path d="M212.439,266.987c0.376,0.308 0.439,0.46 0.712,0.578c0.806,0.351 2.429,0.823 3.142,0.721c1.376,-0.197 1.187,-0.176 2.481,-0.258c0.069,-0.371 -0.282,-0.935 -0.244,-1.301c0.436,-0.211 1.01,-0.736 1.478,-0.931c0.806,-0.335 2.11,-0.63 2.923,-0.874c0.94,-0.282 2.048,-0.291 3.028,-0.136c0.72,0.112 1.101,1.91 1.242,2.586c0.086,0.413 0.668,0.317 0.928,0.648c0.226,0.286 0.718,0.416 0.893,0.734c0.397,0.721 1.007,1.223 1.474,1.854c0.505,0.682 0.929,1.161 1.682,1.508c0.893,0.411 0.459,0.483 1.55,0.727c0.533,0.119 1.656,0.419 2.172,0.545c0.45,0.112 1.38,0.384 1.388,0.974c1.557,0.566 0.795,1.802 -0.072,2.836c-0.428,0.51 -0.977,1.025 -1.545,1.307c-0.709,0.35 -1.346,0.773 -2.079,1.069c-0.827,0.334 -1.671,0.727 -2.555,0.86c-0.865,0.131 -1.744,0.469 -2.629,0.507c-1.931,0.087 -4.937,0.772 -6.186,-0.925c-1.01,-1.373 -2.531,-2.384 -3.931,-3.381c-1.487,-1.059 -2.982,-1.312 -4.559,-2.188c-0.769,-0.428 -2.198,-0.832 -2.623,-1.64c-0.412,-0.782 -0.272,-1.495 -0.316,-2.386c-0.037,-0.735 -0.003,-1.805 0.301,-2.43c0.28,-0.576 0.641,-0.738 1.45,-0.7" id="Shoe_Left_1_" fill="#2fa64a" stroke="none" stroke-width="1"/><path d="M242.759,260.296c0.553,0.163 0.846,0.483 1.116,0.608c0.512,0.237 1.523,0.29 2.074,0.429c1.262,0.32 2.863,-0.141 4.161,-0.216c1.815,-0.106 3.468,-1.073 5.19,-1.73c0.64,-0.245 1.818,-1.095 1.91,-1.841c0.09,-0.727 -0.476,-1.527 -0.428,-2.282c0.064,-1.053 0.922,-0.406 1.71,-0.183c0.389,0.109 0.476,0.094 0.81,0.319c0.243,0.16 0.71,0.173 0.806,0.445c0.474,1.334 1.499,0.436 0.474,1.334c0.184,-0.017 -2.018,1.758 -1.831,1.802c0.823,0.185 0.659,0.136 1.351,0.574c0.767,0.485 1.629,0.996 2.449,1.353c2.124,0.927 4.288,1.304 6.58,1.304c0.79,0 2.076,-0.29 2.406,0.622c0.198,0.541 0.784,1.732 0.6,2.229c-0.51,1.384 -1,2.482 -2.432,2.78c-2.032,0.425 -5.259,0.774 -7.377,0.462c-1.825,-0.269 -3.927,-0.806 -5.744,-1.142c-2.271,-0.419 -3.793,-0.167 -5.975,0.43c-1.815,0.496 -4.202,0.299 -6.104,0.089c-0.572,-0.064 -1.492,-0.492 -1.879,-0.88c-0.287,-0.287 -0.467,-0.607 -0.659,-0.967c-0.331,-0.623 -0.658,-1.286 -0.727,-1.996c-0.075,-0.771 -0.092,-2.102 0.421,-2.674c0.236,-0.265 0.405,-1.043 0.799,-0.96" id="Shoe_Right_1_" fill="#2fa64a" stroke="none" stroke-width="1"/><path d="M210.785,272.017c2.051,0.334 4.252,1.694 6.182,2.473c2.15,0.866 3.894,2.474 6.085,3.279c2.447,0.899 5.425,0.589 7.866,-0.338c1.145,-0.434 2.333,-0.691 3.229,-1.338c0.556,-0.397 1.173,-0.603 1.409,-1.194c0.164,-0.409 -0.146,-0.688 0.039,-1.038c0.051,-0.098 -0.191,-0.435 -0.186,-0.536c1.188,-0.136 1.637,0.488 2.274,1.508c0.676,1.081 -0.008,1.779 -0.483,2.596c-1.156,1.984 -4.318,2.554 -6.501,3.146c-2.177,0.59 -5.503,1.141 -7.586,0.188c-0.582,-0.266 -0.638,-0.591 -1.013,-1.002c-0.319,-0.35 -0.813,-0.585 -1.186,-0.879c-0.511,-0.402 -0.785,-0.922 -1.241,-1.316c-0.376,-0.324 -0.736,-0.54 -1.186,-0.769c-1.378,-0.699 -3.035,-1.51 -4.46,-2.123c-0.585,-0.252 -1.744,-0.677 -2.268,-1.015c-0.78,-0.502 -0.429,-1.126 -0.98,-1.711" id="Shoe_Trim_Left_1_" fill="#a9d7aa" stroke="none" stroke-width="1"/><path d="M241.935,265.407c0.158,-0.39 2.333,0.764 2.759,0.72c1.021,-0.103 2.176,0.15 3.187,-0.118c0.907,-0.241 1.593,0.016 2.401,-0.214c1.075,-0.305 2.084,-0.183 3.186,-0.071c1.127,0.113 2.202,0.451 3.352,0.57c1.363,0.142 2.8,0.375 4.187,0.499c2.18,0.196 4.17,0.342 6.301,-0.356c3.369,-1.104 3.301,-3.81 3.66,-4.117c1.414,1.062 1.425,2.811 -0.143,4.717c-1.345,1.635 -4.056,1.245 -5.961,1.428c-2.218,0.211 -4.431,-0.653 -6.591,-0.888c-0.997,-0.107 -1.953,-0.245 -2.978,-0.347c-1.419,-0.141 -3.061,-0.017 -4.419,0.324c-1.643,0.412 -3.068,0.318 -4.802,0.381c-0.999,0.035 -1.617,0.293 -2.474,-0.428c-0.523,-0.442 -0.346,-0.146 -0.688,-0.522c-0.042,-0.103 -0.409,-0.54 -0.381,-0.596" id="Shoe_Trim_Right_1_" fill="#a9d7aa" stroke="none" stroke-width="1"/><path d="M257.125,252.084c-0.088,0.486 -0.113,0.625 -0.195,0.83c-0.193,0.489 0.565,1.059 0.301,1.522c-0.599,1.05 0.571,3.173 -0.357,3.95c-1.646,1.38 -3.45,2.199 -5.829,2.649c-0.534,0.102 -1.097,0.165 -1.604,0.366c-0.589,0.233 -1.27,0.205 -1.927,0.178c-0.555,-0.023 -0.516,0.07 -1.032,-0.007c-0.507,-0.076 -0.128,-0.245 -0.736,-0.14c-0.633,-0.107 0.25,0.054 -0.921,-0.145c-0.723,-0.122 -2.149,-0.749 -1.338,-0.675c-1.242,-0.171 -4.079,-1.589 -3.684,-2.552c0.148,-0.36 1.65,-1.75 0.367,-3.948c-0.406,-0.696 -0.456,-1.979 0.294,-2.72c0.765,-0.755 0.347,-0.434 0.306,-1.525c-0.038,-1.077 -1.461,-3.115 -1.272,-4.211c0.205,-1.195 0.566,-0.75 1.183,-2.05c0.353,-0.744 0.838,-3.148 0.153,-4.189c-0.724,-1.102 -0.594,-3.062 -0.849,-4.347c-0.543,-2.74 -0.342,-5.775 -0.42,-8.557c-0.065,-2.394 0.005,-4.822 0.709,-7.089c0.254,-0.813 0.463,-1.662 0.72,-2.497c0.286,-0.94 0.58,-1.766 0.677,-2.749c0.251,-2.557 0.338,-4.835 -0.128,-7.347c-0.17,-0.923 -0.568,-1.782 -0.738,-2.701c-0.188,-1.017 -0.35,-1.98 -0.396,-3.042c-0.04,-0.862 -0.105,-2.075 -0.582,-2.805c-0.574,1.573 -1.008,3.123 -1.826,4.208c-0.824,1.091 -1.141,2.377 -1.781,3.578c-1.148,2.146 -1.907,4.604 -3.276,6.606c-1.354,1.98 -0.308,4.362 -0.209,5.323c0.078,0.759 -0.222,1.084 -0.392,1.833c-0.15,0.671 -0.203,1.514 -0.753,2.047c-0.45,0.438 -0.202,0.56 -0.27,1.148c-0.162,1.46 -0.782,2.311 -1.032,3.782c-0.279,1.647 -0.672,3.198 -1.07,4.729c-0.36,1.384 -0.881,3.08 -1.135,4.51c-0.246,1.388 -0.759,3.15 -0.839,5.979c-0.055,1.931 -0.516,2.209 -0.487,4.062c0.011,0.722 -0.089,0.814 -0.101,1.542c-0.016,0.914 -0.224,0.09 -0.007,0.833c0.318,1.092 -0.583,2.175 -0.65,3.311c-0.068,1.151 -0.113,0.084 0.031,1.222c0.103,0.816 0.871,1.931 0.448,2.583c-1.332,2.057 0.923,1.692 0.861,2.105c-0.352,2.312 -0.484,1.791 -1.585,4.164c-0.695,1.499 0.338,2.772 0.125,2.782c-2.055,0.095 -5.201,0.549 -6.843,1.506c-1.164,0.68 0.125,1.835 -1.336,1.839c-0.601,0.002 -1.983,0.4 -2.579,0.175c-1.053,-0.4 -0.512,0.056 -1.703,-0.485c-1.338,-0.604 -2.51,-1.061 -1.911,-0.784c1.428,0.659 -1.239,-0.463 -1.678,-1.405c-0.442,-0.95 -0.54,-6.05 -0.207,-7.466c0.151,-0.64 0.921,-1.588 0.752,-2.229c-0.073,-0.277 -0.319,-1.296 -0.091,-1.716c0.294,-0.54 -0.532,-0.416 -0.093,-0.995c0.353,-0.465 0.059,-1.066 0.215,-1.768c0.121,-0.54 -0.401,-1.538 -0.177,-2.038c0.236,-0.525 -0.029,-1.147 0.028,-1.727c0.098,-0.984 0.489,-2.154 0.737,-3.321c0.538,-2.542 1.691,-4.466 2.199,-7.189c0.459,-2.467 0.501,-5.564 0.957,-7.954c0.409,-2.143 0.257,-4.104 1.093,-6.207c0.42,-1.058 0.454,-2.585 0.957,-3.604c0.445,-0.9 1.748,-4.146 1.603,-3.154c-0.02,0.135 1.816,-3.476 1.682,-2.771c-0.277,1.457 0.447,-2.686 0.668,-4.117c0.221,-1.431 0.272,-2.907 0.623,-4.275c0.286,-1.118 0.337,-2.356 0.522,-3.52c0.38,-2.386 1.048,-4.738 1.092,-7.174c0.052,-2.865 0.583,-5.395 0.48,-8.252c-0.046,-1.269 0.941,-9.267 0.932,-9.257c5.072,1.98 9.47,2.535 13.545,1.894c3.807,-0.599 7.826,-0.956 11.579,-2.278c2.573,-0.906 4.642,-4.164 6.319,-5.107c0.207,0.352 0.271,0.006 0.426,0.398c0.171,0.436 0.484,1.018 0.592,1.482c0.234,1.015 0.505,2.188 0.641,3.229c0.263,2.003 0.303,3.742 0.379,5.848c0.087,2.396 0.273,4.847 0.117,7.204c-0.155,2.376 0.021,4.774 -0.684,7.025c-0.353,1.126 -0.494,2.143 -0.726,3.303c-0.209,1.049 -0.39,2.194 -0.688,3.255c-0.279,0.996 -0.281,1.883 -0.396,2.839c-0.121,1.013 -0.625,2.849 -1.339,3.652c-0.51,0.575 -0.268,0.773 -0.431,1.616c-0.144,0.738 -0.423,1.2 -0.433,1.959c-0.009,0.531 0.454,1.595 0.512,1.893c0.118,0.615 0.077,0.664 0,1.427c-0.147,1.447 -0.98,2.469 -1.143,3.776c-0.124,0.994 -0.093,2.077 -0.3,3.108c-0.45,2.255 0.396,4.563 0.593,6.822c0.411,4.775 1.285,10.559 1.64,13c0.205,1.416 0.434,0.696 0.722,2.191c0.386,1.998 0.419,2.735 1.697,2.632c0.245,-0.02 -0.322,1.385 0.364,1.581c0.021,0.006 0.092,0.405 0.388,1.344c0.281,0.892 0.82,0.072 0.246,0.7" id="Pants_3_" fill="#536aa4" stroke="none" stroke-width="1"/><path d="M249.915,110.694c-0.073,0.028 -0.148,0.048 -0.198,0.108M238.94,122.523c-0.172,-2.08 -0.611,-3.449 -0.047,-3.405c5.594,0.439 10.039,-11.291 9.713,-12.477c-0.166,-0.608 0.072,-0.734 -0.138,-1.397c-0.155,-0.482 -0.148,-0.679 -0.352,-1.167c-0.477,-1.141 -1.494,-2.086 -2.208,-3.063c-0.629,-0.858 -0.659,-1.959 -1.013,-3.029c-0.369,-1.112 -0.768,-2.578 -1.197,-3.691c-0.233,-0.608 -0.43,-1.368 -0.813,-1.889c-0.396,-0.54 -0.563,-1.001 -1.074,-1.415c-1.104,-0.897 -2.504,-1.559 -3.971,-1.459c-2.673,0.18 -5.606,1.636 -7.96,2.653c-1.459,0.63 -2.441,1.232 -4.025,1.418c-0.676,0.079 -1.662,0.52 -2.334,0.481c-0.478,-0.027 -1.134,-0.706 -1.491,-0.447c0.058,0.051 -0.071,0.406 -0.019,0.445c0.252,0.762 0.672,0.781 0.102,1.649c-0.381,0.581 -0.678,0.838 -0.865,1.563c-0.277,1.072 -0.27,1.96 -0.781,3.022c-0.486,1.007 0.018,2.795 0.366,3.9c0.158,0.501 0.408,0.976 0.602,1.493c0.205,0.547 0.836,1.46 1.237,1.88c0.824,0.863 1.023,1.433 1.995,1.72c-0.926,-0.11 -1.832,0.038 -2.768,-0.188c-0.743,-0.179 -1.927,-1.099 -2.644,-1.171c-0.669,-0.067 -1.309,0.741 -1.389,1.456c-0.099,0.892 0.028,1.862 0.33,2.61c0.445,1.1 1.256,1.593 2.419,1.989c0.459,0.157 1.549,0.238 1.944,0.312c0.625,0.118 1.417,-0.324 2.046,-0.409c0.979,-0.132 1.384,1.592 2.372,1.889c1.74,0.523 1.056,1.193 0.961,1.8c0.53,0.959 0.228,-0.001 -0.137,1.029c-0.193,0.544 -0.068,0.228 -0.098,0.832c-0.026,0.521 0.581,0.368 -0.244,0.287c0.033,0.007 -0.257,0.392 -0.54,0.741c-0.934,0.83 -1.008,-0.7 -0.309,0.464c-1.16,0.612 -0.756,0.612 -1.264,0.957c0.314,0.128 -0.416,0.602 -0.612,0.89c-0.444,0.653 -0.064,0.101 -0.738,0.68c-0.652,0.559 -0.977,0.721 -1.438,0.986c-0.465,0.268 -0.495,0.544 -0.386,1.062c0.213,1.013 0.177,0.737 -0.135,1.688c-0.305,0.93 0.008,1.096 0.121,2.021c-0.598,-1.039 0,0 -0.147,1.165c-0.07,0.553 0.576,1.496 -0.194,1.326c-1.435,-0.317 -5.019,-1.648 -5.833,-4.512c-0.743,0.262 -0.748,1.445 -0.679,2.154c0.096,0.986 0.21,1.504 0.954,2.034c-0.529,-0.161 -1.215,-0.415 -1.668,-0.752c-0.573,-0.427 -0.599,-0.453 -1.047,-0.996c-0.489,-0.593 -1.547,-1.616 -1.944,-2.258c-0.428,-0.69 -1.092,-2.513 -1.223,-3.323c-0.186,-1.147 0.071,-2.196 0.303,-3.313c0.246,-1.187 0.458,-2.002 0.603,-3.185c0.178,-1.462 0.94,-2.724 0.844,-4.21c-0.04,-0.607 -0.139,-1.275 -0.016,-1.876c0.124,-0.609 -0.027,-1.989 -0.078,-2.628c-0.205,-2.594 -0.382,-4.394 -0.667,-7.275c-0.124,-1.245 -0.507,-2.634 -0.769,-3.869c-0.273,-1.29 -0.698,-2.557 -0.649,-3.798c0.048,-1.214 0.552,-2.357 0.952,-3.551c0.469,-1.402 1.524,-2.118 2.764,-2.896c0.647,-0.408 1.048,-0.163 1.35,-0.807c0.24,-0.513 0.372,-1.465 0.819,-1.843c1.563,-1.322 2.688,-1.725 3.947,-2.17c1.842,-0.651 2.855,-1.173 5.03,-1.729c2.25,-0.575 4.243,-0.831 6.548,-0.833c2.189,-0.001 4.637,0.455 6.778,1.086c1.135,0.336 2.652,1.332 3.566,2.093c1.713,1.426 3.814,2.872 4.778,4.935c0.498,1.065 1.105,1.623 1.724,2.636c0.649,1.058 1.26,2.347 1.516,3.565c0.509,2.407 1.195,4.636 1.383,7.139c0.048,0.648 0.253,1.039 0.315,1.676c0.055,0.596 -0.755,3.916 -0.812,4.494c-0.155,1.617 -1.791,3.636 -1.765,4.128c0.211,3.994 6.801,8.762 4.03,10.899c-0.019,0.08 -1.642,-2.543 -1.935,-2.297c-0.086,1.513 -0.235,4.508 -0.944,4.18c-5.023,-2.325 -8.376,0.042 -10.663,-1.437" data-paper-data="{&quot;origPos&quot;:null}" id="Hair_3_" fill="#080503" stroke="none" stroke-width="1"/><path d="M221.557,131.663c-1.695,-0.457 -5.309,-2.269 -5.738,-4.433c-1.408,1.529 0.044,3.83 1.146,4.514c0.038,0.03 0.097,-0.103 0.064,-0.136c-0.966,-0.287 -2.206,-0.89 -2.873,-1.531c-0.321,0.741 -0.714,1.676 -0.589,2.439c0.129,0.792 -0.046,2.231 -0.237,3.002c-0.397,1.607 -0.786,2.455 -1.21,4.063c-0.196,0.741 -0.47,1.143 -0.156,1.766c0.348,0.691 1.324,1.532 1.924,2.029c0.511,0.422 1.135,1.127 1.762,1.328c0.726,0.232 2.009,0.229 2.644,0.068c1.565,-0.397 1.229,-1.293 1.526,-2.791c0.232,-1.166 0.616,-2.301 0.766,-3.517c0.286,-2.312 1.122,-4.144 1.122,-6.581M231.543,129.616c2.024,1.477 3.483,3.162 6.207,3.226c2.307,0.055 4.438,-1.457 4.776,-3.796c0.129,-0.902 0.176,-1.831 0.356,-2.707c0.092,-0.446 0.177,-0.887 0.143,-1.358c-0.034,-0.489 -0.27,-0.849 -0.346,-1.273c1.188,0.081 2.456,-0.283 3.698,-0.157c1.137,0.115 2.576,0.437 3.513,1.197c0.909,0.735 1.979,1.979 2.101,2.986c0.151,1.255 0.947,2.267 1.449,3.452c0.733,1.726 2.244,2.995 3.05,4.709c0.348,0.745 0.731,1.452 0.16,2.225c-0.441,0.598 -0.252,0.83 -0.783,1.358c0.849,-0.288 -0.406,0.622 -0.382,0.663c-1.079,0.615 -2.426,1.209 -3.614,1.603c-0.617,0.205 -1.19,0.18 -1.502,0.838c-0.232,0.494 -0.203,1.194 -0.281,1.729c-0.371,2.494 0.83,4.59 1.069,6.989c0.035,0.365 0.109,0.743 0.076,1.115c-2.841,-0.603 -5.022,0.679 -7.332,2.253c-2.311,1.575 -5.293,2.868 -7.721,4.262c-1.611,0.924 -3.188,1.637 -4.852,2.362c-1.736,-1.621 -4.849,-0.691 -7.052,-0.802c0.365,-0.88 1.117,-2.049 1.203,-3.057c0.101,-1.191 0.725,-2.36 0.785,-3.563c0.065,-1.323 0.405,-2.348 0.343,-3.712c-0.065,-1.435 0,-3.032 0,-4.507c0,-1.593 -0.268,-2.892 -0.343,-4.497c-0.036,-0.786 -0.152,-1.611 -0.071,-2.407c0.062,-0.61 0.304,-1.17 0.341,-1.783c0.042,-0.714 -0.085,-1.065 0.372,-1.518c0.351,-0.349 0.897,-0.554 1.213,-0.979c0.548,-0.736 0.735,-1.993 1.514,-2.479c0.573,-0.358 0.835,-0.378 1.214,-0.997c0.231,-0.375 0.432,-1.202 0.768,-1.373M239.607,123.248c0.261,-0.017 0.572,0.21 0.811,0.305c0.203,0.08 0.396,0.143 0.608,0.188c0.28,0.06 0.577,0.127 0.863,0.125c0.161,-0.001 0.415,-0.085 0.571,-0.023c0.276,0.11 0.346,0.388 0.102,0.459c-0.299,0.087 -0.809,0.006 -1.119,0.021c-0.455,0.022 -1.167,0.018 -1.573,-0.201c-0.289,-0.156 -0.361,-0.504 -0.382,-0.803M224.671,168.072c0.801,-0.172 2.533,-0.424 3.442,-0.592c1.938,-0.357 3.819,-1.249 5.758,-1.654c1.899,-0.396 3.766,-0.945 5.657,-1.399c1.132,-0.272 2.183,-0.735 3.312,-1.034c0.795,-0.21 1.594,-0.348 2.378,-0.578c1.918,-0.564 3.866,-1.23 5.754,-1.909c0.6,-0.217 1.015,-0.23 1.615,-0.313c0.746,-0.103 0.626,-0.04 0.817,0.66c0.276,1.006 1.075,1.797 1.427,2.785c0.315,0.885 0.73,2.059 1.185,2.864c0.458,0.809 1.646,1.095 1.789,2.139c0.072,0.511 -0.209,0.778 -0.324,1.236c-0.123,0.484 -0.07,0.713 -0.36,1.142c-0.251,0.372 -0.413,0.736 -0.606,1.117c-0.315,0.625 -0.366,0.335 -0.659,-0.215c-0.292,-0.55 -0.412,-0.851 -1.062,-0.551c-0.443,0.203 -0.787,0.659 -1.132,0.994c-1.768,1.718 -3.957,3.494 -6.364,4.24c-3.404,1.055 -6.555,1.319 -10.088,1.658c-2.103,0.201 -4.825,0.01 -6.929,-0.169c-1.946,-0.166 -3.599,-0.641 -5.384,-1.4c-0.911,-0.387 -1.436,-0.814 -1.743,-1.76c-0.131,-0.407 -0.322,-0.842 -0.137,-1.28c0.161,-0.382 0.651,-0.705 0.862,-1.076c0.232,-0.409 0.284,-0.831 0.309,-1.302c0.037,-0.686 0.301,-0.594 0.702,-1.075c0.265,-0.317 0.496,-0.856 0.428,-1.291c-0.056,-0.358 -0.736,-1.121 -0.592,-1.345" id="Shirt_3_" fill="#2fa64a" stroke="none" stroke-width="1"/><path d="M250.708,141.734c1.699,0.059 2.979,-1.104 4.538,-1.429c0.306,1.324 1.062,2.801 1.409,4.124c0.422,1.604 0.862,2.595 1.085,4.101c0.22,1.501 0.803,2.717 0.724,4.321c-0.062,1.228 0.081,3.081 -0.542,4.156c-0.317,0.549 -0.965,0.862 -1.454,1.217c-0.596,0.432 -1.102,0.922 -1.686,1.317c-1.091,0.737 -2.279,1.174 -3.576,1.52c-4.006,1.066 -7.897,2.308 -11.909,3.317c-4.388,1.104 -8.423,2.262 -13.032,3.361c-1.62,0.386 -2.762,0.602 -4.337,0.034c-0.702,-0.253 -1.433,-0.352 -2.096,-0.635c-0.567,-0.243 -1.01,-0.642 -1.567,-0.876c0.02,-0.571 -0.213,-1.21 -0.432,-1.727c-0.253,-0.599 -0.312,-1.053 -0.479,-1.697c-0.307,-1.181 -1.177,-2.347 -1.603,-3.514c-0.897,-2.46 -1.466,-4.586 -1.593,-7.245c-0.069,-1.435 -0.407,-3.127 -0.683,-4.537c-0.156,-0.802 -0.152,-1.748 -0.152,-2.593c0,-0.849 -0.735,-1.897 0.271,-1.438c0.65,0.297 1.103,0.842 1.841,1.037c0.622,0.163 1.313,0.266 2.017,0.222c1.682,-0.104 1.751,-1.147 2.159,-2.479c0.2,-0.651 0.625,-1.213 0.816,-1.839c0.207,-0.677 0.156,-1.389 0.3,-2.078c0.29,-1.386 0.648,-2.815 0.722,-4.22c0.141,-2.67 0.419,-4.713 0.598,-7.4c0.086,-1.303 0.113,-1.947 1.261,-2.693c1.026,-0.667 2.192,-1.862 2.958,-2.835c0.667,-0.848 1.15,-1.438 1.878,-2.218c0.472,-0.506 1.453,-2.04 2.246,-1.887c0.022,0.52 -0.28,1.205 -0.386,1.748c-0.099,0.506 -0.343,1.31 -0.557,1.762c-0.281,0.59 -0.791,1.089 -1.204,1.595c-0.416,0.509 -1.226,0.995 -1.512,1.507c0.618,-0.029 1.094,-0.417 1.752,-0.388c0.741,0.032 1.338,0.347 1.824,0.862c1.015,1.077 1.774,1.519 1.774,3.135c0,1.134 -0.502,2.39 -1.038,3.361c-0.234,0.426 -0.732,0.902 -1.139,1.178c-0.248,0.167 -0.492,0.139 -0.682,0.336c-0.225,0.234 -0.224,0.633 -0.335,0.886c-0.246,0.555 -0.623,0.791 -0.942,1.294c-0.377,0.594 -1.681,0.997 -1.608,1.418c0.198,1.147 -0.166,3.1 -0.024,4.023c0.198,1.284 0.232,2.004 0.295,3.303c0.066,1.365 -0.089,3.293 -0.105,4.686c-0.015,1.302 0.068,2.397 -0.116,3.641c-0.157,1.06 -0.319,2.18 -0.524,3.216c-0.209,1.059 -0.318,2.159 -0.576,3.199c-0.213,0.861 -0.793,1.671 -1.031,2.543c1.324,0.082 2.698,-0.354 4.067,-0.15c0.645,0.096 1.327,0.289 1.937,0.563c0.799,0.359 0.949,0.612 1.746,0.16c1.537,-0.873 3.219,-1.408 4.711,-2.38c1.379,-0.897 2.779,-1.485 4.241,-2.232c1.797,-0.919 3.752,-2.397 5.629,-3.149c1.441,-0.577 2.761,-1.23 4.349,-1.124c0.051,-1.088 0.155,-1.688 -0.276,-2.669c-0.38,-0.857 -0.324,-1.56 -0.285,-2.521c0.068,-1.72 -0.474,-3.763 0.334,-5.271" data-paper-data="{&quot;origPos&quot;:null}" id="SkinArms_1_" fill="#b07800" stroke="none" stroke-width="1"/><path d="M222.057,93.457c-0.032,-0.083 -0.076,-0.101 -0.063,-0.19c1.739,1.784 4.717,0.018 6.553,-0.721c2.024,-0.813 4.171,-1.678 6.261,-2.386c2.378,-0.805 4.066,-1.028 6.219,0.269c1,0.603 2.236,1.856 2.642,3.064c0.393,1.169 0.89,1.939 0.999,3.174c0.052,0.574 0.073,1.177 0.127,1.728c0.052,0.528 0.287,1.09 0.49,1.617c0.393,1.018 1.113,1.601 1.79,2.379c0.758,0.872 1.012,2.018 1.319,3.05c0.363,1.21 0.017,2.283 -0.207,3.41c-0.109,0.559 -0.816,1.866 -0.985,2.42c-0.195,0.644 -0.474,0.899 -0.827,1.457c-0.604,0.95 -3.233,4.205 -4.339,5.236c-1.661,1.551 -3.099,0.458 -3.234,1.992c-0.143,1.61 0.09,1.605 0.146,2.76c0.016,0.315 0.173,0.732 0.428,0.984c0.276,0.274 0.604,0.248 1.018,0.352c0.747,0.188 1.51,0.335 2.281,0.034c0.682,1.934 0.04,4.77 -0.84,6.533c-0.922,1.847 -3.76,2.888 -5.813,2.155c-1.016,-0.362 -2.108,-1.111 -2.998,-1.712c-1.289,-0.869 -1.236,-1.439 -1.034,-2.783c0.159,-1.061 -0.218,-2.118 -0.925,-2.887c-0.68,-0.739 -0.893,-1.932 -2.158,-1.98c-0.598,-0.023 -1.117,0.372 -1.772,0.276c0.015,-0.551 0.845,-0.906 1.219,-1.256c0.461,-0.431 0.75,-0.88 0.963,-1.482c0.266,-0.753 1.564,-3.115 0.875,-3.822c-0.761,0.777 -1.647,1.421 -2.484,2.142c0.046,-1.115 0.65,-1.819 0.057,-2.988c-0.402,-0.792 -1.863,-1.409 -2.582,-2.049c-0.768,-0.685 -0.761,-0.322 -1.626,-0.107c-0.564,0.141 -1.29,0.186 -1.863,0.055c-1.061,-0.242 -2.059,-0.772 -2.916,-1.537c-1.127,-1.004 -1.848,-4.293 0.055,-4.651c0.934,-0.176 1.718,0.565 2.582,0.803c1.061,0.291 2.173,0.229 3.22,0.471c-0.208,-0.42 -0.835,-0.62 -1.204,-0.919c-0.399,-0.323 -0.789,-0.657 -1.105,-1.05c-0.592,-0.733 -1.034,-1.806 -1.337,-2.712c-0.778,-2.323 -0.641,-4.471 0.305,-6.701c0.279,-0.659 0.635,-1.454 0.765,-2.144c0.151,-0.805 -0.242,-1.545 -0.204,-2.414c0.147,-0.057 0.196,0.019 0.275,0.061" data-paper-data="{&quot;origPos&quot;:null}" id="SkinFace_1_" fill="#af7700" stroke="none" stroke-width="1"/><path d="M235.947,113.026c1.064,-0.475 2.131,-1.202 3.182,-1.719c0.888,-0.436 2.231,-0.729 3.156,-0.688c0.092,0.004 0.185,0.071 0.277,0.101c-0.002,0.012 -0.003,0.082 -0.001,0.093c-0.193,0.097 -0.335,0.341 -0.451,0.521c-0.22,0.343 -0.193,0.398 -0.587,0.486c-0.557,0.124 -1.17,0.19 -1.749,0.281c-0.634,0.101 -1.257,0.349 -1.896,0.468c-0.355,0.065 -0.729,0.153 -1.068,0.217c-0.233,0.043 -0.602,-0.023 -0.804,0.099c-0.009,0.013 -0.018,0.024 -0.026,0.037" id="Teeth_1_" fill="#ffffff" stroke="none" stroke-width="1"/><path d="M226.379,104.213c0.961,-0.206 1.151,-0.63 2.034,-0.748c0.498,-0.067 1.39,-0.327 1.955,-0.256c0.609,0.078 0.811,-0.143 1.23,0.084c0.362,0.196 0.93,0.427 1.248,0.69c0.093,0.077 0.76,0.652 0.838,0.76c0.351,0.48 -0.313,0.857 -0.411,0.933c-0.503,0.391 -0.706,0.379 -1.212,0.674c-0.514,0.3 -1.505,0.994 -2.115,0.944c-0.633,-0.051 -2.259,-0.814 -2.729,-1.276c-0.184,-0.181 -0.999,-1.316 -0.609,-1.542M240.425,101.741c-0.15,0.129 -0.141,0.399 -0.174,0.587c-0.074,0.412 -0.495,1.046 -0.06,1.055c0.363,0.008 1.959,0.321 2.328,0.29c0.729,-0.062 1.812,-0.689 2.423,-1.498c0.21,-0.277 0.167,-0.619 0.245,-0.948c0.066,-0.279 0.142,-1.502 -0.105,-1.684c-0.363,-0.268 -0.363,-0.268 -1.039,-0.174c-0.602,0.083 -1.194,0.289 -1.737,0.567c-0.348,0.178 -0.812,0.487 -0.971,0.734c-0.1,0.156 -0.357,0.401 -0.466,0.551c-0.096,0.131 -0.298,0.069 -0.246,0.253" id="Eye_Whites_1_" fill="#ffffff" stroke="none" stroke-width="1"/><path d="M231.879,103.158c0.206,-0.008 0.479,0.223 0.638,0.349c0.208,0.165 0.229,0.301 0.295,0.537c0.037,0.136 -0.019,0.282 -0.02,0.427c-0.001,0.143 0.027,0.156 -0.024,0.273c-0.079,0.179 -0.036,0.233 -0.193,0.383c-0.101,0.094 -0.189,0.183 -0.313,0.251c-0.481,0.267 -1.188,0.286 -1.62,-0.116c-0.213,-0.198 -0.317,-0.248 -0.365,-0.562c-0.049,-0.324 0.033,-0.661 0.15,-0.949c0.177,-0.437 1.014,-0.731 1.452,-0.593M242.731,100.8c0.026,0.245 0.255,0.52 0.403,0.698c0.307,0.365 0.961,0.354 1.322,0.138c0.188,-0.113 0.556,-0.521 0.621,-0.757c0.05,-0.181 -0.207,-0.741 -0.34,-0.89c-0.149,-0.169 -0.593,-0.306 -0.787,-0.376c-0.88,-0.322 -1.279,0.594 -1.219,1.187z" id="Irises_3_" fill="#3b2416" stroke="none" stroke-width="1"/><path d="M235.056,113.406c0.769,-0.479 1.673,-0.586 2.525,-0.85c0.887,-0.275 1.789,-0.354 2.702,-0.483c0.562,-0.078 1.117,-0.3 1.669,-0.353c-0.027,0.156 -0.14,0.261 -0.14,0.441c0,0.162 0.035,0.331 0.054,0.494c0.024,0.237 0.215,0.683 0.075,0.896c-0.09,0.138 -0.262,0.121 -0.396,0.103c-0.187,-0.026 -0.394,-0.037 -0.592,-0.054c-0.404,-0.034 -0.808,-0.053 -1.222,-0.053c-0.823,0 -1.694,-0.038 -2.489,0.142c-0.312,0.071 -0.646,0.148 -0.96,0.195c-0.328,0.049 -0.643,-0.184 -0.946,-0.332c-0.086,-0.043 -0.275,-0.097 -0.263,-0.184" id="Mouth_1_" fill="#3f1212" stroke="none" stroke-width="1"/><path d="M236.179,113.951c-0.025,-0.189 2.214,-0.39 2.493,-0.403c0.608,-0.03 1.229,0.041 1.84,0.04c0.239,0 0.315,-0.034 0.548,0.012c0.185,0.037 0.596,0.01 0.73,0.113c0.006,0.001 0.013,0.003 0.02,0.005c0.18,0.51 -0.256,0.784 -0.602,1.043c-0.387,0.291 -0.767,0.364 -1.254,0.469c-0.613,0.131 -1.324,-0.037 -1.91,-0.232c-0.322,-0.107 -0.594,-0.27 -0.891,-0.428c-0.246,-0.132 -0.56,-0.25 -0.779,-0.409c-0.091,-0.066 -0.183,-0.18 -0.219,-0.28" id="Tongue_1_" fill="#a23422" stroke="none" stroke-width="1"/><path d="M241.125,186.757c-0.135,0.074 -0.642,0.094 -0.318,-0.083c2.576,-1.42 5.27,-2.589 8.021,-3.625c0.213,-0.081 0.559,-0.001 0.192,0.137c-2.709,1.021 -5.358,2.175 -7.895,3.571zM252.691,212.861c-0.056,0.146 -0.588,0.203 -0.544,0.09c1.302,-3.412 2.175,-6.999 3.105,-10.526c0.977,-3.71 1.666,-7.558 1.812,-11.398c0.138,-3.578 -0.055,-7.169 -0.252,-10.742c-0.165,-2.979 -0.427,-6.035 -1.727,-8.764c-0.049,-0.1 0.483,-0.29 0.551,-0.147c1.363,2.861 1.605,6.099 1.75,9.22c0.166,3.609 0.423,7.236 0.201,10.845c-0.225,3.666 -0.815,7.354 -1.791,10.896c-0.97,3.523 -1.799,7.106 -3.105,10.526zM232.498,214.597c-0.051,0.145 -0.585,0.208 -0.544,0.095c1.818,-5.074 4.769,-9.674 6.942,-14.599c2.142,-4.851 4.024,-9.833 5.374,-14.966c0.037,-0.143 0.578,-0.222 0.544,-0.094c-1.347,5.127 -3.216,10.128 -5.374,14.966c-2.19,4.913 -5.124,9.531 -6.942,14.598zM219.778,213.276c-0.035,0.144 -0.577,0.226 -0.543,0.094c0.645,-2.623 0.771,-5.33 1.219,-7.987c0.549,-3.265 1.445,-6.451 1.777,-9.754c0.323,-3.213 0.249,-6.418 0.404,-9.637c0.144,-3.002 0.498,-5.98 1.002,-8.941c0.023,-0.139 0.568,-0.236 0.544,-0.094c-0.587,3.445 -1.014,6.945 -1.041,10.445c-0.024,3.062 -0.079,6.133 -0.487,9.171c-0.411,3.064 -1.264,6.038 -1.716,9.092c-0.375,2.537 -0.545,5.116 -1.159,7.611zM250.033,221.85c-0.102,0.091 -0.626,0.148 -0.502,0.035c1.336,-1.213 2.887,-2.652 3.28,-4.496c0.375,-1.765 -0.57,-3.4 -0.328,-5.172c0.02,-0.137 0.566,-0.239 0.545,-0.093c-0.26,1.891 0.927,3.727 0.204,5.581c-0.656,1.69 -1.879,2.945 -3.199,4.145zM251.96,219.493c0.021,-0.138 0.567,-0.238 0.546,-0.095c-0.886,5.774 0.374,11.766 1.021,17.51c0.398,3.531 0.871,7.251 1.951,10.646c0.039,0.125 -0.508,0.284 -0.551,0.147c-1.099,-3.449 -1.629,-7.278 -1.976,-10.873c-0.553,-5.738 -1.877,-11.568 -0.991,-17.335zM241.77,218.848c0.009,0.16 -0.546,0.256 -0.552,0.147c-0.196,-3.647 0.502,-7.281 0.166,-10.924c-0.319,-3.479 -1.323,-6.854 -1.486,-10.344c-0.008,-0.16 0.547,-0.253 0.552,-0.146c0.163,3.495 1.227,6.857 1.486,10.342c0.272,3.652 -0.361,7.278 -0.166,10.925zM241.365,213.816c0.006,-0.168 0.554,-0.241 0.553,-0.151c-0.119,2.829 -1.493,5.375 -1.777,8.174c-0.319,3.121 -0.254,6.249 -0.144,9.38c0.091,2.577 0.182,5.381 1.165,7.804c0.474,1.174 1.555,2.9 1.235,4.211c-0.035,0.143 -0.576,0.225 -0.545,0.094c0.377,-1.539 -1.09,-3.355 -1.474,-4.793c-0.729,-2.721 -0.888,-5.465 -0.971,-8.271c-0.09,-2.945 -0.104,-5.885 0.243,-8.817c0.311,-2.613 1.604,-4.973 1.715,-7.631zM221.316,220.387c0.012,-0.17 0.558,-0.237 0.551,-0.148c-0.137,2.012 0.461,4.601 2.571,5.366c0.173,0.064 -0.324,0.268 -0.451,0.222c-2.164,-0.784 -2.814,-3.356 -2.671,-5.44zM229.717,225.462c-0.055,0.145 -0.586,0.205 -0.545,0.092c0.693,-1.821 2.196,-3.181 2.891,-4.985c0.982,-2.55 -0.477,-4.947 -0.301,-7.535c0.012,-0.169 0.557,-0.237 0.551,-0.148c-0.163,2.41 1.331,4.904 0.421,7.261c-0.741,1.923 -2.282,3.383 -3.017,5.315zM226.029,264.641c0.008,0.16 -0.545,0.255 -0.55,0.148c-0.048,-0.852 -0.251,-1.823 -0.003,-2.662c0.226,-0.768 0.652,-1.376 1,-2.084c0.209,-0.425 1.035,-1.933 0.381,-2.303c-0.968,-0.547 -1.968,0.39 -2.749,0.799c-1.182,0.618 -2.647,0.589 -3.947,0.609c-1.655,0.024 -3.315,-0.183 -4.937,-0.495c-0.163,-0.033 0.317,-0.246 0.451,-0.221c1.086,0.21 2.186,0.373 3.291,0.435c1.289,0.069 3.4,0.332 4.588,-0.29c0.904,-0.475 1.85,-1.26 2.911,-1.334c1.117,-0.079 1.259,0.787 1,1.604c-0.282,0.887 -0.836,1.595 -1.185,2.443c-0.456,1.107 -0.317,2.191 -0.251,3.351zM216.824,264.685c-0.364,0.032 0.087,-0.219 0.235,-0.231c4.058,-0.357 8.416,-2.296 9.729,-6.447c0.045,-0.145 0.583,-0.214 0.544,-0.094c-1.4,4.425 -6.228,6.396 -10.508,6.772zM212.485,263.902c-0.32,0.097 -0.367,-0.088 -0.048,-0.182c0.46,-0.138 0.923,-0.391 1.277,-0.72c0.068,-0.064 0.325,-0.207 0.131,-0.303c-0.155,-0.076 -0.31,-0.152 -0.469,-0.22c-0.638,-0.273 -1.29,-0.513 -1.908,-0.834c-0.077,-0.039 0.372,-0.265 0.518,-0.189c0.821,0.426 1.708,0.704 2.529,1.131c0.037,0.018 0.007,0.058 -0.009,0.078c-0.523,0.608 -1.26,1.01 -2.021,1.239zM231.372,221.914c0.032,-0.143 0.575,-0.227 0.543,-0.096c-0.617,2.648 -1.236,5.3 -1.855,7.949c-0.599,2.568 -1.561,5.358 -1.853,7.931c-0.611,5.38 -1.224,10.76 -1.836,16.14c-0.019,0.171 -0.56,0.229 -0.551,0.148c0.317,-2.785 0.634,-5.57 0.951,-8.355c0.29,-2.546 0.307,-5.318 0.89,-7.818c1.237,-5.298 2.474,-10.599 3.711,-15.899zM211.938,257.341c0.388,-0.052 0.13,0.185 -0.098,0.215c-3.162,0.429 -2.038,2.59 -2.055,4.883c-0.006,0.757 -0.269,2.072 0.087,2.771c0.498,0.979 1.622,1.371 2.525,1.883c0.08,0.045 -0.377,0.271 -0.519,0.191c-1.248,-0.708 -2.629,-1.161 -2.655,-2.784c-0.024,-1.462 -0.157,-2.884 -0.219,-4.336c-0.087,-2.009 1.118,-2.577 2.934,-2.823zM219.256,213.341c0.081,-0.108 0.614,-0.187 0.5,-0.032c-5.203,6.944 -4.959,16.673 -6.504,24.831c-0.392,2.072 -1.61,3.9 -1.928,5.983c-0.274,1.792 -0.688,3.586 -0.694,5.407c-0.009,2.808 0.332,5.73 -0.506,8.443c-0.044,0.146 -0.582,0.215 -0.544,0.095c0.942,-3.052 0.308,-6.289 0.542,-9.435c0.121,-1.613 0.356,-3.336 0.763,-4.896c0.578,-2.222 1.681,-4.155 1.926,-6.468c0.457,-4.321 1.227,-8.739 2.111,-12.997c0.802,-3.865 1.937,-7.732 4.334,-10.931zM239.576,258.466c-0.094,-0.098 0.417,-0.298 0.517,-0.192c2.757,2.871 6.81,3.811 10.633,2.749c1.56,-0.436 7.821,-1.895 6.169,-4.38c-0.051,-0.074 0.456,-0.29 0.552,-0.147c1.758,2.645 -5.156,4.335 -6.672,4.71c-4.05,1.005 -8.221,0.362 -11.199,-2.74zM240.083,258.305c-0.091,0.1 -0.622,0.167 -0.5,0.033c0.713,-0.774 1.09,-1.404 0.958,-2.515c-0.102,-0.854 -0.636,-1.408 -0.853,-2.2c-0.23,-0.841 0.049,-1.826 0.958,-2.07c0.322,-0.086 0.371,0.099 0.05,0.185c-0.759,0.205 -0.559,1.605 -0.316,2.059c0.323,0.6 0.69,1.177 0.713,1.881c0.04,1.208 -0.219,1.771 -1.01,2.627zM240.453,251.893c-0.135,0.073 -0.643,0.091 -0.322,-0.086c0.549,-0.298 1.082,-0.315 1.704,-0.312c1.491,0.007 2.997,0.023 4.487,-0.034c3.415,-0.13 6.722,-0.701 9.787,-2.276c0.134,-0.068 0.646,-0.084 0.321,0.083c-2.305,1.184 -4.75,1.861 -7.313,2.199c-1.334,0.176 -2.682,0.227 -4.027,0.247c-0.841,0.013 -1.686,0.005 -2.529,0.014c-0.601,0.008 -1.584,-0.12 -2.108,0.165zM257.369,254.128c-0.019,0.172 -0.561,0.23 -0.556,0.145c0.045,-0.425 -0.407,-0.966 -0.257,-1.349c0.118,-0.297 0.458,-0.531 0.553,-0.813c0.348,-1.037 -0.741,-2.087 -1.119,-2.983c-0.048,-0.109 0.489,-0.289 0.551,-0.146c0.317,0.75 1.475,1.955 1.184,2.827c-0.115,0.343 -0.413,0.496 -0.539,0.812c-0.215,0.549 0.238,0.963 0.183,1.507zM240.529,239.22c-0.049,-0.1 0.482,-0.29 0.553,-0.149c0.548,1.126 0.607,2.495 0.221,3.688c-0.303,0.939 -1.375,1.889 -1.396,2.851c-0.043,1.951 1.35,3.874 1.031,5.797c-0.023,0.139 -0.566,0.237 -0.544,0.094c0.333,-2.007 -1.244,-3.944 -1.01,-6.001c0.102,-0.887 0.986,-1.444 1.258,-2.29c0.428,-1.328 0.508,-2.715 -0.113,-3.99zM256.431,249.238c-0.055,0.146 -0.586,0.205 -0.543,0.094c0.115,-0.295 0.791,-1.156 0.267,-1.39c-0.375,-0.171 -0.83,-0.043 -1.21,-0.221c-0.096,-0.044 0.145,-0.157 0.162,-0.164c0.105,-0.039 0.248,-0.077 0.355,-0.025c0.225,0.103 0.512,0.078 0.754,0.108c0.156,0.019 0.416,0.026 0.525,0.163c0.381,0.479 -0.136,0.978 -0.31,1.435zM247.292,255.222c-0.174,-0.074 0.327,-0.273 0.454,-0.221c1.354,0.569 3.045,0.393 4.461,0.173c1.973,-0.308 3.692,-1.024 4.608,-2.922c0.07,-0.145 0.592,-0.191 0.545,-0.094c-0.836,1.733 -2.395,2.691 -4.227,3.051c-1.805,0.356 -4.083,0.748 -5.841,0.013zM226.087,257.261c-0.094,0.137 -0.591,0.16 -0.544,0.092c0.453,-0.655 0.858,-1.268 0.618,-2.114c-0.164,-0.58 -0.434,-1.082 -0.3,-1.694c0.03,-0.142 0.574,-0.23 0.544,-0.094c-0.178,0.815 0.432,1.512 0.365,2.336c-0.049,0.594 -0.351,0.995 -0.683,1.474zM256.827,254.327c-0.003,-0.163 0.549,-0.251 0.553,-0.147c0.016,0.828 -0.55,1.674 0.113,2.382c0.092,0.1 -0.418,0.297 -0.52,0.191c-0.699,-0.746 -0.127,-1.556 -0.146,-2.426z" id="Pants_2_" fill="#010101" stroke="none" stroke-width="1"/><path d="M242.097,260.332c0.104,-0.162 0.662,-0.203 0.515,0.021c-0.735,1.131 -1.48,2.57 -1.104,3.967c0.401,1.485 1.466,2.467 2.687,3.328c0.227,0.162 -0.279,0.389 -0.436,0.278c-1.256,-0.886 -2.72,-2.119 -2.858,-3.781c-0.116,-1.425 0.432,-2.64 1.196,-3.813zM268.236,268.061c0.38,-0.049 0.205,0.291 -0.069,0.327c-1.87,0.242 -3.705,0.537 -5.588,0.267c-2.119,-0.304 -4.178,-0.926 -6.295,-1.218c-1.729,-0.237 -3.366,-0.218 -5.072,0.178c-0.921,0.212 -1.83,0.427 -2.777,0.488c-1.539,0.097 -3.034,-0.024 -4.562,-0.146c-0.373,-0.03 -0.016,-0.352 0.209,-0.333c1.839,0.146 3.673,0.352 5.51,0.024c2.016,-0.358 3.879,-0.893 5.952,-0.661c2.002,0.223 3.932,0.749 5.909,1.111c2.337,0.431 4.451,0.263 6.783,-0.037zM264.468,268.658c-0.373,-0.012 -0.011,-0.34 0.207,-0.33c2.406,0.078 5.383,0.126 6.672,-2.341c0.422,-0.806 0.912,-2.201 0.039,-2.933c-0.79,-0.663 -1.883,-0.658 -2.865,-0.677c-1.827,-0.037 -3.663,0.012 -5.376,-0.728c-1.616,-0.7 -3.051,-1.723 -4.613,-2.531c-0.238,-0.123 0.265,-0.366 0.436,-0.277c2.775,1.436 4.975,3.139 8.254,3.184c1.242,0.014 4.177,-0.362 4.906,1.112c0.797,1.612 -0.396,3.74 -1.86,4.578c-1.798,1.026 -3.786,1.007 -5.8,0.943zM241.528,265.172c-0.226,-0.167 0.28,-0.393 0.435,-0.279c1.526,1.13 3.489,1.207 5.312,0.978c1.851,-0.231 3.65,-0.303 5.514,-0.194c2.185,0.127 4.322,0.459 6.497,0.73c3.734,0.464 10.901,1.424 11.168,-4.019c0.01,-0.197 0.565,-0.304 0.553,-0.062c-0.26,5.311 -6.949,4.969 -10.75,4.551c-2.74,-0.299 -5.44,-0.782 -8.201,-0.896c-2.139,-0.09 -4.207,0.313 -6.328,0.317c-1.506,0.004 -2.963,-0.211 -4.2,-1.126zM256.947,260.443c-0.114,0.155 -0.672,0.19 -0.515,-0.024c0.859,-1.174 2.202,-1.7 3.26,-2.648c0.238,-0.214 0.464,-0.44 0.707,-0.652c0.371,-0.325 -0.532,-1.111 -0.723,-1.221c-0.632,-0.371 -1.57,-0.943 -2.33,-0.787c-0.334,0.067 -0.42,-0.23 -0.08,-0.299c1.031,-0.212 3.861,0.67 3.784,2.071c-0.026,0.437 -0.88,0.985 -1.185,1.214c-0.994,0.746 -2.173,1.324 -2.918,2.346zM255.006,259.821c-0.042,-0.214 0.511,-0.352 0.552,-0.148c0.048,0.245 0.199,0.471 0.414,0.604c0.152,0.092 0.341,0.212 0.479,0.061c0.132,-0.146 0.669,-0.139 0.445,0.106c-0.59,0.648 -1.733,0.174 -1.89,-0.623z" id="Right_Shoe_1_" fill="#010101" stroke="none" stroke-width="1"/><path d="M227.072,267.682c-0.235,-0.139 0.27,-0.375 0.439,-0.277c1.876,1.099 2.774,2.921 4.426,4.27c1.421,1.158 3.154,0.935 4.697,1.735c0.754,0.389 1.473,1.075 1.542,1.98c0.154,1.974 -1.749,2.914 -3.242,3.767c-2.343,1.337 -5.253,1.987 -7.926,2.141c-1.148,0.067 -2.436,0.132 -3.529,-0.301c-1.118,-0.443 -1.732,-1.193 -2.544,-2.043c-1.988,-2.08 -4.743,-3.429 -7.424,-4.403c-0.766,-0.276 -1.739,-0.599 -2.253,-1.285c-0.645,-0.857 -0.623,-1.832 -0.655,-2.871c-0.04,-1.279 -0.168,-2.819 1.136,-3.467c0.186,-0.093 0.583,0.051 0.286,0.215c-0.053,0.029 -0.105,0.06 -0.158,0.088c-0.19,0.105 -0.673,-0.003 -0.347,-0.184c0.053,-0.028 0.105,-0.058 0.158,-0.087c0.095,0.072 0.19,0.144 0.285,0.216c-0.898,0.446 -0.815,1.827 -0.811,2.667c0.005,0.973 -0.133,2.428 0.616,3.202c1.127,1.165 3.061,1.528 4.497,2.218c1.725,0.832 3.512,1.727 4.854,3.13c0.712,0.744 1.391,1.77 2.383,2.163c1.45,0.575 3.037,0.513 4.558,0.323c2.574,-0.321 5.097,-1.005 7.326,-2.365c0.776,-0.474 2.169,-1.224 2.239,-2.263c0.104,-1.534 -0.819,-2.486 -2.258,-2.843c-2.03,-0.503 -3.474,-0.85 -4.893,-2.479c-1.083,-1.242 -1.961,-2.402 -3.402,-3.247zM211.528,267.009c-0.241,-0.113 0.263,-0.36 0.435,-0.279c1.081,0.507 2.226,1.149 3.417,1.345c1.157,0.191 2.294,-0.091 3.423,-0.325c0.333,-0.069 0.42,0.228 0.08,0.298c-1.16,0.243 -2.329,0.522 -3.52,0.394c-1.339,-0.147 -2.64,-0.871 -3.835,-1.433zM210.848,272.085c-0.241,-0.1 0.26,-0.351 0.435,-0.279c2.603,1.08 5.325,1.978 7.774,3.392c1.144,0.662 2.179,1.555 3.36,2.146c1.49,0.744 3.11,0.813 4.743,0.616c1.854,-0.223 9.477,-1.615 8.027,-4.655c-0.085,-0.177 0.454,-0.349 0.553,-0.147c1.423,2.984 -5.348,4.601 -7.202,4.918c-1.435,0.248 -3.048,0.486 -4.501,0.227c-1.456,-0.26 -2.554,-0.962 -3.758,-1.788c-2.891,-1.985 -6.217,-3.097 -9.431,-4.43zM220.08,270.448c-0.372,-0.03 -0.014,-0.349 0.21,-0.332c2.067,0.161 4.958,-0.125 6.359,-1.86c0.119,-0.148 0.678,-0.178 0.516,0.022c-1.58,1.957 -4.738,2.353 -7.085,2.17zM226.964,268.518c-0.11,0.156 -0.669,0.193 -0.516,-0.021c0.488,-0.694 0.548,-2.636 -0.147,-3.264c-0.999,-0.901 -3.552,-0.116 -4.64,0.229c-0.718,0.227 -1.429,0.486 -2.108,0.819c-0.946,0.464 -0.967,0.771 -0.426,1.549c0.511,0.738 0.984,1.456 1.319,2.291c0.076,0.188 -0.469,0.352 -0.551,0.146c-0.489,-1.218 -1.33,-2.21 -1.991,-3.331c-0.048,-0.081 0.004,-0.158 0.081,-0.201c2.147,-1.19 5.089,-2.484 7.625,-2.216c1.742,0.186 2.286,2.677 1.354,3.999z" id="Left_Shoe_1_" fill="#010101" stroke="none" stroke-width="1"/><path d="M232.9,104.008c0.188,0.669 -0.202,1.364 -0.872,1.552c-0.669,0.188 -1.362,-0.203 -1.549,-0.873c-0.188,-0.669 0.203,-1.363 0.873,-1.551c0.666,-0.187 1.36,0.203 1.548,0.872zM243.682,99.627c-0.575,0.122 -0.939,0.688 -0.816,1.263c0.122,0.574 0.688,0.94 1.262,0.817c0.574,-0.123 0.94,-0.688 0.817,-1.263c-0.123,-0.574 -0.688,-0.94 -1.263,-0.817z" id="Irises_2_" fill="none" stroke="#010101" stroke-width="0.75"/><path d="M221.982,131.638c0.136,0.045 -0.236,0.204 -0.337,0.169c-2.593,-0.863 -5.107,-1.79 -5.904,-4.67c0.132,-0.021 0.264,-0.044 0.395,-0.065c-1.133,1.537 -0.512,4.119 1.388,4.725c0.145,0.047 -0.248,0.19 -0.337,0.171c-2.034,-0.428 -4.151,-2.424 -5.353,-4.034c-0.679,-0.91 -1.314,-1.928 -1.527,-3.062c-0.27,-1.434 0.07,-2.727 0.143,-4.162c0.007,-0.132 0.417,-0.188 0.413,-0.111c-0.111,2.196 -0.58,4.129 0.644,6.132c1.09,1.784 2.588,2.985 4.238,4.212c0.333,0.248 0.68,0.568 1.088,0.686c0.889,0.257 -0.156,0.136 0.055,0.24c-0.558,-0.275 -1.04,-0.708 -1.315,-1.277c-0.57,-1.182 -0.609,-2.419 0.186,-3.498c0.043,-0.058 0.364,-0.176 0.395,-0.066c0.789,2.852 3.264,3.756 5.828,4.61zM219.124,107.579c-0.078,-0.082 0.308,-0.23 0.391,-0.148c1.349,1.434 3.393,1.717 5.274,1.626c-0.093,0.055 -0.187,0.11 -0.281,0.165c-2.844,-1.352 -4.468,-4.588 -4.339,-7.692c0.072,-1.743 0.494,-3.599 1.358,-5.131c0.332,-0.589 0.676,-0.962 0.464,-1.672c-0.151,-0.504 -0.308,-1.003 -0.58,-1.456c-0.043,-0.07 0.346,-0.222 0.413,-0.11c0.504,0.84 0.928,1.838 0.382,2.717c-0.9,1.448 -1.534,3.354 -1.605,5.062c-0.137,3.277 1.201,6.666 4.293,8.137c0.1,0.047 -0.251,0.164 -0.281,0.165c-1.945,0.095 -4.091,-0.179 -5.489,-1.663zM248.968,111.36c-0.072,0.079 -0.472,0.126 -0.377,0.021c2.506,-2.731 2.558,-7.317 2.168,-10.767c-0.531,-4.705 -2.137,-9.46 -4.994,-13.275c-3.336,-4.453 -8.136,-7.014 -13.74,-7.147c-3.554,-0.085 -7.227,0.523 -10.542,1.825c-1.362,0.535 -2.668,1.191 -3.971,1.856c-1.328,0.678 -2.342,1.443 -2.334,3.043c0,0.079 -0.13,0.112 -0.187,0.13c-1.423,0.442 -2.12,1.282 -3.202,2.2c-0.08,0.068 -0.477,0.105 -0.377,0.021c0.767,-0.651 1.431,-1.557 2.38,-1.957c0.686,-0.29 0.834,-0.316 1.014,-1.031c0.129,-0.514 0.343,-1.003 0.749,-1.365c0.871,-0.777 1.948,-1.209 2.975,-1.74c1.527,-0.789 3.117,-1.46 4.773,-1.93c5.967,-1.696 13.004,-2.075 18.372,1.566c5.096,3.456 8.129,9.625 9.188,15.563c0.714,4.022 1.115,9.71 -1.895,12.987zM210.862,120.621c-0.016,0.11 -0.427,0.187 -0.409,0.067c0.46,-3.14 1.492,-6.287 1.402,-9.488c-0.076,-2.69 -0.292,-5.557 -0.67,-8.227c-0.669,-4.718 -2.836,-9.351 0.227,-13.706c0.061,-0.086 0.465,-0.146 0.377,-0.021c-3.35,4.764 -0.384,10.205 -0.01,15.37c0.189,2.612 0.672,5.397 0.436,8.002c-0.246,2.701 -0.96,5.323 -1.353,8.003zM250.179,124.61c-0.078,0.071 -0.475,0.11 -0.379,0.02c1.061,-0.939 1.236,-3.47 0.279,-4.55c-0.086,-0.096 0.307,-0.198 0.387,-0.146c1.226,0.774 2.158,1.559 2.643,2.956c-0.137,0.03 -0.272,0.06 -0.409,0.09c0.616,-1.55 0.498,-2.777 -0.467,-4.159c-0.648,-0.93 -1.423,-1.763 -2.059,-2.701c-0.937,-1.384 -1.157,-3.221 -1.607,-4.796c-0.029,-0.105 0.384,-0.219 0.413,-0.111c0.537,1.871 0.798,3.78 2.016,5.344c0.713,0.916 1.57,1.812 2.081,2.867c0.632,1.305 0.553,2.177 0.03,3.489c-0.032,0.084 -0.37,0.202 -0.41,0.089c-0.479,-1.377 -1.423,-2.166 -2.616,-2.921c0.129,-0.048 0.258,-0.097 0.387,-0.146c0.982,1.107 0.817,3.698 -0.289,4.675z" id="Hair_2_" fill="#010101" stroke="none" stroke-width="1"/><path d="M233.701,104.862c0.112,-0.123 0.662,-0.165 0.51,0.002c-0.982,1.073 -2.793,2.452 -4.336,2.445c-1.935,-0.009 -3.576,-1.228 -4.167,-3.072c-0.028,-0.087 0.114,-0.153 0.169,-0.178c2.449,-1.102 6.601,-2.038 8.336,0.699c0.114,0.181 -0.422,0.355 -0.514,0.21c-1.485,-2.343 -4.873,-1.847 -7.083,-0.93c-1.148,0.475 1.567,2.556 2.106,2.739c1.808,0.615 3.774,-0.6 4.979,-1.915zM239.947,103.495c-0.215,-0.067 0.283,-0.305 0.444,-0.256c1.459,0.457 3.553,0.458 4.363,-1.064c0.328,-0.619 0.565,-1.366 0.465,-2.077c-0.077,-0.535 -0.238,-0.64 -0.765,-0.611c-2.039,0.117 -3.993,1.682 -4.01,3.807c-0.001,0.205 -0.553,0.302 -0.551,0.148c0.017,-2.489 3,-4.82 5.484,-4.177c0.626,0.162 0.438,1.36 0.312,1.831c-0.229,0.861 -0.658,1.575 -1.374,2.118c-1.112,0.846 -3.123,0.671 -4.368,0.281zM226.583,104.18c-0.124,0.113 -0.67,0.137 -0.437,-0.076c0.078,-0.076 0.159,-0.147 0.246,-0.212c0.129,0.037 0.258,0.074 0.387,0.111c-0.164,0.082 -0.314,0.156 -0.44,0.3c-0.096,-0.043 -0.193,-0.085 -0.289,-0.128c0.252,-0.07 0.483,-0.149 0.671,-0.34c0.128,0.037 0.258,0.074 0.387,0.111c-0.249,0.165 -0.421,0.351 -0.438,0.659c-0.176,0.013 -0.354,0.024 -0.53,0.037c0.155,-0.164 0.258,-0.326 0.301,-0.553c0.176,-0.013 0.353,-0.024 0.53,-0.037c-0.189,0.282 -0.217,0.557 -0.152,0.886c0.036,0.183 -0.495,0.326 -0.551,0.147c-0.088,-0.277 -0.14,-0.562 -0.256,-0.829c0.184,-0.049 0.367,-0.098 0.551,-0.148c0.08,0.784 0.489,1.3 0.986,1.881c0.137,0.16 -0.388,0.319 -0.513,0.21c-0.525,-0.458 -0.638,-1.36 -0.354,-1.979c0.285,-0.622 0.849,-0.902 1.52,-0.846c0.304,0.024 -0.181,0.298 -0.341,0.284c-0.573,-0.047 -0.784,0.758 -0.767,1.205c0.016,0.424 0.125,0.838 0.455,1.126c-0.171,0.069 -0.342,0.14 -0.513,0.21c-0.513,-0.6 -0.941,-1.13 -1.024,-1.943c-0.019,-0.188 0.475,-0.322 0.551,-0.147c0.117,0.267 0.168,0.552 0.256,0.829c-0.184,0.049 -0.367,0.098 -0.551,0.148c-0.075,-0.378 -0.024,-0.712 0.193,-1.034c0.068,-0.1 0.571,-0.253 0.53,-0.037c-0.049,0.255 -0.163,0.441 -0.341,0.629c-0.079,0.083 -0.543,0.275 -0.53,0.037c0.022,-0.413 0.326,-0.665 0.65,-0.88c0.113,-0.076 0.607,-0.113 0.387,0.11c-0.283,0.288 -0.661,0.413 -1.041,0.519c-0.06,0.017 -0.427,0.028 -0.289,-0.128c0.175,-0.199 0.378,-0.326 0.614,-0.444c0.1,-0.051 0.638,-0.093 0.387,0.11c-0.086,0.065 -0.168,0.136 -0.245,0.212zM245.007,100.085c-0.074,-0.145 0.46,-0.327 0.555,-0.148c0.162,0.316 0.139,0.617 0.138,0.962c0,0.182 -0.513,0.334 -0.552,0.147c-0.096,-0.452 -0.112,-0.833 -0.493,-1.147c-0.164,-0.135 0.374,-0.273 0.478,-0.233c0.048,0.02 0.099,0.039 0.151,0.059c-0.161,0.078 -0.319,0.155 -0.479,0.233c-0.343,-0.234 -0.693,-0.388 -1.117,-0.353c0.047,-0.097 0.099,-0.193 0.148,-0.29c0.549,0.014 1.031,0.171 1.528,0.396c-0.147,0.085 -0.295,0.171 -0.441,0.256c-0.464,-0.281 -0.953,-0.511 -1.495,-0.303c-0.241,0.092 -0.574,-0.068 -0.213,-0.207c0.771,-0.296 1.452,-0.168 2.149,0.253c0.223,0.136 -0.301,0.32 -0.441,0.257c-0.423,-0.19 -0.837,-0.344 -1.306,-0.356c-0.345,-0.009 -0.034,-0.275 0.149,-0.29c0.592,-0.049 1.062,0.094 1.551,0.427c0.162,0.109 -0.366,0.276 -0.478,0.233c-0.048,-0.02 -0.1,-0.039 -0.151,-0.059c0.161,-0.078 0.319,-0.155 0.479,-0.233c0.399,0.331 0.428,0.729 0.531,1.21c-0.185,0.049 -0.367,0.099 -0.552,0.148c0,-0.346 0.024,-0.647 -0.139,-0.962z" id="Eyes_1_" fill="#010101" stroke="none" stroke-width="1"/><path d="M256.81,170.795c0.268,0.006 -0.25,0.217 -0.358,0.217c-0.918,-0.019 -2.332,1.788 -3.007,2.342c-0.776,0.637 -1.558,1.272 -2.377,1.857c-1.242,0.887 -2.605,1.502 -4.055,1.963c-3.06,0.972 -6.263,1.399 -9.459,1.569c-3.545,0.188 -7.288,0.252 -10.761,-0.601c-1.209,-0.297 -2.617,-0.688 -3.525,-1.596c-0.325,-0.325 -0.63,-0.706 -0.741,-1.164c-0.163,-0.672 0.892,-1.962 1.252,-2.518c0.085,-0.132 0.575,-0.151 0.542,-0.101c-0.479,0.741 -1.581,2.042 -1.054,2.934c0.277,0.468 0.667,0.852 1.13,1.136c1.193,0.734 2.586,1.097 3.956,1.328c3.503,0.592 7.133,0.57 10.667,0.291c3.46,-0.274 7.364,-0.714 10.414,-2.474c1.604,-0.926 3.119,-2.151 4.495,-3.387c0.884,-0.793 1.597,-1.823 2.881,-1.796zM250.014,145.655c-0.265,0 0.251,-0.214 0.36,-0.214c0.266,0 -0.252,0.214 -0.36,0.214zM256.202,167.14c0.036,0.094 -0.503,0.27 -0.553,0.147c-0.884,-2.287 -1.745,-4.583 -2.641,-6.866c-0.037,-0.094 0.502,-0.27 0.551,-0.147c0.898,2.282 1.758,4.578 2.643,6.866zM256.475,173.061c-0.05,0.135 -0.575,0.189 -0.542,0.101c0.402,-1.099 1.135,-2.057 1.564,-3.15c0.559,-1.428 -0.918,-2.067 -1.915,-2.806c-0.068,-0.051 0.402,-0.273 0.521,-0.184c0.851,0.631 2.523,1.394 2.017,2.685c-0.456,1.161 -1.218,2.188 -1.645,3.354zM257.312,136.588c0.076,0.088 -0.436,0.282 -0.522,0.184c-1.974,-2.297 -3.578,-5.076 -4.688,-7.882c-0.594,-1.501 -1.165,-3.75 -2.826,-4.42c-1.722,-0.695 -3.675,-0.999 -5.521,-0.841c-0.362,0.032 0.105,-0.196 0.242,-0.208c1.707,-0.148 3.459,0.067 5.087,0.608c1.462,0.485 2.308,1.549 2.89,2.958c1.416,3.422 2.894,6.755 5.338,9.601zM224.005,173.249c-0.094,0.086 -0.607,0.149 -0.497,0.047c0.33,-0.302 0.56,-0.654 0.658,-1.092c0.111,-0.493 -0.032,-0.476 -0.084,-0.881c-0.032,-0.251 -0.038,-0.551 0.228,-0.69c0.379,-0.197 1.049,-0.418 0.808,-0.99c-0.195,-0.463 -0.455,-0.839 -0.454,-1.358c0,-0.15 0.551,-0.224 0.551,-0.147c-0.002,0.762 1.053,1.811 0.046,2.289c-0.398,0.189 -0.699,0.48 -0.554,0.958c0.053,0.173 0.1,0.281 0.058,0.469c-0.126,0.564 -0.333,1.005 -0.76,1.395zM250.397,145.578c0.031,0.113 -0.521,0.262 -0.553,0.147c-0.6,-2.205 1.335,-4.175 0.581,-6.469c-0.359,-1.096 -0.924,-2.01 -1.615,-2.926c-0.369,-0.488 -0.988,-1.023 -1.176,-1.624c-0.034,-0.107 0.514,-0.265 0.551,-0.147c0.222,0.707 1.029,1.425 1.465,2.018c0.637,0.865 1.291,1.895 1.437,2.986c0.141,1.063 0.039,2.074 -0.319,3.085c-0.353,1.002 -0.659,1.867 -0.371,2.93zM239.042,123.276c-0.045,-0.02 0.375,-0.248 0.52,-0.183c1.336,0.592 2.951,0.649 4.366,0.337c0.386,-0.084 0.104,0.143 -0.105,0.189c-1.55,0.341 -3.316,0.305 -4.781,-0.343zM231.349,129.466c-0.039,-0.064 0.473,-0.277 0.551,-0.148c1.328,2.193 4.175,3.971 6.82,3.449c3.971,-0.785 4.14,-5.732 3.744,-8.898c-0.015,-0.134 0.539,-0.244 0.551,-0.147c0.449,3.581 0.029,8.183 -4.131,9.179c-2.903,0.696 -6.036,-0.957 -7.535,-3.435zM211.961,140.908c-0.07,0.136 -0.578,0.169 -0.542,0.102c0.94,-1.842 1.37,-3.969 1.715,-5.993c0.278,-1.63 0.212,-3.312 0.727,-4.891c0.043,-0.135 0.573,-0.196 0.542,-0.101c-0.585,1.791 -0.495,3.769 -0.861,5.622c-0.353,1.788 -0.747,3.627 -1.581,5.261zM211.415,141.033c-0.04,-0.074 0.482,-0.277 0.551,-0.147c1.124,2.118 4.406,5.28 6.844,3.253c0.098,-0.082 0.607,-0.142 0.497,-0.05c-2.846,2.367 -6.445,-0.328 -7.892,-3.056zM250.725,141.919c-0.358,0.049 0.11,-0.191 0.243,-0.208c2.514,-0.337 5.821,-2.049 5.809,-4.957c-0.001,-0.15 0.552,-0.227 0.552,-0.148c0.011,3.241 -3.865,4.947 -6.604,5.313zM251.234,152.008c0.021,0.129 -0.535,0.25 -0.552,0.147c-0.386,-2.338 -0.366,-4.711 -0.967,-7.014c-0.03,-0.116 0.522,-0.261 0.552,-0.148c0.601,2.303 0.58,4.677 0.967,7.015z" id="Shirt_2_" fill="#010101" stroke="none" stroke-width="1"/><path d="M225.375,162.483c0.38,-0.031 0.202,0.294 -0.071,0.316c-1.655,0.134 -4.233,0.015 -5.423,-1.421c-0.83,-1.001 -0.177,-2.217 1.131,-1.963c1.074,0.208 2.069,0.882 3.175,0.867c1.016,-0.013 2.027,-0.118 3.043,-0.131c1.603,-0.02 3.759,-0.012 4.59,1.631c0.084,0.167 -0.451,0.342 -0.552,0.148c-1.328,-2.627 -5.55,-0.991 -7.809,-1.347c-0.572,-0.091 -1.097,-0.338 -1.639,-0.532c-0.272,-0.098 -1.703,-0.709 -1.779,0.099c-0.036,0.388 0.06,0.739 0.349,1.01c1.318,1.236 3.269,1.463 4.985,1.323zM219.056,162.207c-0.235,-0.114 0.27,-0.353 0.437,-0.272c1.592,0.776 3.818,1.129 5.521,0.563c0.328,-0.109 0.399,0.18 0.077,0.287c-1.87,0.622 -4.288,0.275 -6.035,-0.578zM219.765,162.14c0.063,0.192 -0.485,0.347 -0.552,0.147c-0.512,-1.542 -1.366,-2.849 -2.369,-4.115c-0.141,-0.179 0.389,-0.373 0.511,-0.22c1.022,1.29 1.889,2.618 2.41,4.188zM218.399,166.415c-0.232,-0.123 0.273,-0.359 0.436,-0.273c1.604,0.848 3.339,1.827 5.181,1.973c0.373,0.029 0.006,0.339 -0.211,0.321c-1.931,-0.151 -3.725,-1.132 -5.406,-2.021zM223.875,168.37c-0.38,0.065 -0.194,-0.27 0.072,-0.315c4.3,-0.723 8.599,-1.899 12.779,-3.13c0.332,-0.098 0.405,0.19 0.078,0.287c-4.23,1.245 -8.578,2.427 -12.929,3.158zM252.936,152.544c0.235,0.092 -0.267,0.339 -0.436,0.273c-2.582,-1.007 -4.979,0.052 -7.257,1.299c-1.605,0.877 -3.199,1.767 -4.798,2.656c-2.977,1.655 -5.959,3.303 -9.01,4.823c-0.248,0.124 -0.562,-0.067 -0.22,-0.237c4.214,-2.099 8.293,-4.449 12.414,-6.72c2.906,-1.601 5.948,-3.404 9.307,-2.094zM236.804,165.212c-0.332,0.094 -0.406,-0.193 -0.077,-0.288c3.971,-1.129 7.971,-2.158 11.943,-3.294c3.241,-0.926 7.48,-2.012 9.326,-5.117c0.096,-0.161 0.652,-0.212 0.515,0.017c-1.755,2.954 -5.617,4.164 -8.717,5.083c-4.308,1.278 -8.668,2.37 -12.99,3.599zM258.531,156.489c-0.015,0.192 -0.57,0.298 -0.554,0.066c0.41,-5.64 -1.34,-10.962 -2.768,-16.339c-0.053,-0.2 0.498,-0.347 0.551,-0.148c1.437,5.404 3.181,10.755 2.771,16.421zM217.318,157.926c0.235,0.097 -0.267,0.342 -0.436,0.272c-0.774,-0.317 0.138,2.608 0.246,2.925c0.597,1.743 1.135,3.496 1.811,5.213c0.073,0.183 -0.472,0.347 -0.551,0.148c-0.89,-2.259 -2.027,-4.81 -2.388,-7.245c-0.152,-1.012 0.214,-1.765 1.318,-1.313z" id="Right_Arm_1_" fill="#010101" stroke="none" stroke-width="1"/><path d="M217.955,156.109c0.054,0.118 -0.48,0.301 -0.551,0.148c-0.742,-1.611 -1.176,-3.231 -0.573,-4.954c0.513,-1.462 1.082,-2.881 1.492,-4.379c1.173,-4.292 2.091,-8.652 3.111,-12.982c0.035,-0.152 0.581,-0.238 0.546,-0.089c-1.019,4.328 -1.913,8.699 -3.111,12.982c-0.418,1.494 -1.028,2.904 -1.491,4.379c-0.549,1.748 -0.172,3.269 0.577,4.895zM224.56,160.304c-0.094,0.14 -0.601,0.172 -0.546,0.087c0.887,-1.324 1.23,-3.018 1.511,-4.562c0.337,-1.85 0.57,-3.721 0.706,-5.597c0.349,-4.813 -0.396,-9.621 0.008,-14.438c0.015,-0.18 0.56,-0.25 0.551,-0.147c-0.412,4.909 0.376,9.815 -0.03,14.719c-0.261,3.149 -0.386,7.231 -2.2,9.938zM212.885,143.218c-0.017,-0.167 0.539,-0.278 0.551,-0.148c0.664,6.568 0.455,12.952 3.939,18.833c0.058,0.097 -0.461,0.299 -0.551,0.147c-3.484,-5.881 -3.274,-12.265 -3.939,-18.832zM221.833,133.871c-0.006,0.179 -0.555,0.258 -0.551,0.149c0.057,-1.603 0.513,-3.153 0.497,-4.762c-0.015,-1.448 -0.104,-2.89 0.267,-4.303c0.039,-0.152 0.584,-0.235 0.545,-0.089c-0.41,1.566 -0.206,3.135 -0.265,4.728c-0.053,1.44 -0.442,2.836 -0.493,4.277zM227.222,123.782c-0.097,0.106 -0.634,0.166 -0.504,0.027c1.769,-1.891 3.62,-3.983 3.429,-6.746c0.163,-0.018 0.327,-0.036 0.49,-0.054c-1.722,1.192 -2.945,2.978 -4.377,4.483c-1.189,1.25 -2.444,2.402 -3.823,3.438c-0.107,0.081 -0.66,0.137 -0.428,-0.038c1.744,-1.312 3.257,-2.825 4.717,-4.438c1.108,-1.225 2.113,-2.537 3.483,-3.485c0.052,-0.035 0.48,-0.202 0.49,-0.055c0.194,2.806 -1.678,4.946 -3.477,6.868zM226.427,135.803c-0.145,0.066 -0.658,0.053 -0.325,-0.101c2.848,-1.309 2.905,-4.114 4.048,-6.653c0.068,-0.152 0.598,-0.205 0.546,-0.089c-1.206,2.678 -1.307,5.48 -4.269,6.843zM229.451,132.151c-0.365,0.037 0.073,-0.233 0.232,-0.25c0.642,-0.064 1.377,-1.712 1.586,-2.206c0.381,-0.904 0.67,-1.899 0.349,-2.865c-0.046,-0.135 0.501,-0.296 0.551,-0.147c0.442,1.323 -0.193,2.887 -0.928,3.99c-0.431,0.646 -0.956,1.395 -1.79,1.478zM227.151,127.231c-0.105,0.085 -0.656,0.145 -0.432,-0.038c1.37,-1.111 3.177,-1.181 4.825,-1.585c-0.077,0.066 -0.154,0.133 -0.231,0.199c-0.416,-0.509 -0.701,-1.103 -1.458,-1.047c-1.112,0.082 -2.157,0.434 -3.229,0.707c-0.323,0.21 -0.445,0.171 -0.367,-0.117c0.291,-0.066 0.58,-0.136 0.87,-0.208c0.431,-0.107 0.861,-0.218 1.293,-0.322c0.731,-0.178 1.462,-0.341 2.203,-0.474c0.385,-0.07 0.137,0.192 -0.094,0.234c-1.568,0.281 -3.099,0.724 -4.653,1.069c-0.324,0.071 -0.383,-0.127 -0.054,-0.203c1.391,-0.321 2.819,-0.918 4.264,-0.936c0.92,-0.011 1.183,0.414 1.745,1.1c0.083,0.099 -0.17,0.184 -0.23,0.199c-1.507,0.369 -3.203,0.408 -4.452,1.422zM229.102,123.358c0.386,-0.06 0.14,0.198 -0.094,0.234c-1.245,0.197 -2.478,0.457 -3.711,0.722c-0.383,0.081 -0.134,-0.186 0.094,-0.234c1.232,-0.265 2.465,-0.526 3.711,-0.722zM228.542,128.326c-0.113,0.071 -0.67,0.113 -0.429,-0.039c0.595,-0.372 1.225,-0.662 1.883,-0.906c0.377,-0.141 0.758,-0.272 1.132,-0.421c0.636,-0.254 0.545,-0.678 0.157,-1.152c-0.102,-0.124 0.422,-0.312 0.518,-0.196c0.269,0.329 0.374,0.639 0.365,1.071c-0.002,0.061 -0.062,0.101 -0.113,0.124c-1.165,0.525 -2.423,0.837 -3.513,1.519zM230.988,124.566c0.1,0.131 -0.428,0.314 -0.517,0.196c-0.428,-0.56 -1.019,-0.933 -1.67,-1.185c-0.187,-0.072 0.314,-0.281 0.448,-0.23c0.674,0.261 1.295,0.639 1.739,1.219z" id="Left_Arm_1_" fill="#010101" stroke="none" stroke-width="1"/><path d="M244.938,100.085c-0.112,-0.137 0.415,-0.325 0.516,-0.201c1.174,1.429 2.737,2.877 3.17,4.753c0.463,2.013 0.051,4.11 -0.836,5.953c-0.954,1.981 -2.193,3.814 -3.617,5.486c-0.969,1.136 -1.945,2.331 -3.342,2.938c-0.226,0.098 -0.558,-0.02 -0.203,-0.174c1.748,-0.76 3.257,-2.854 4.33,-4.377c1.108,-1.572 2.231,-3.249 2.812,-5.103c0.534,-1.705 0.815,-3.678 0.032,-5.36c-0.694,-1.494 -1.828,-2.657 -2.862,-3.915zM237.965,119.183c-0.294,-0.029 0.205,-0.275 0.349,-0.261c0.712,0.068 1.412,0.092 2.119,-0.036c0.383,-0.068 0.148,0.21 -0.09,0.253c-0.791,0.143 -1.58,0.118 -2.378,0.044zM236.116,114.016c-0.325,0.071 -0.392,-0.149 -0.059,-0.221c2.075,-0.451 3.982,-0.474 6.086,-0.223c0.295,0.035 -0.205,0.278 -0.348,0.261c-1.95,-0.232 -3.752,-0.234 -5.679,0.183zM238.617,119.158c0.017,-0.155 0.567,-0.264 0.547,-0.083c-0.209,1.821 -0.107,3.189 0.623,4.858c0.055,0.133 -0.482,0.311 -0.554,0.148c-0.733,-1.684 -0.825,-3.104 -0.616,-4.923zM244.938,100.085c-0.112,-0.137 0.415,-0.325 0.518,-0.201c1.174,1.429 2.737,2.877 3.17,4.753c0.463,2.013 0.051,4.11 -0.836,5.953c-1.494,3.103 -3.98,7.101 -7.299,8.51c-0.226,0.097 -0.56,-0.023 -0.203,-0.174c1.766,-0.751 3.25,-2.527 4.363,-4.046c1.147,-1.564 2.298,-3.235 2.958,-5.076c0.653,-1.821 1.042,-3.975 0.191,-5.804c-0.694,-1.494 -1.828,-2.657 -2.862,-3.915zM224.343,114.008c-0.114,-0.124 0.404,-0.321 0.518,-0.202c1.731,1.858 4.436,2.822 6.798,3.581c2.686,0.863 5.92,1.934 8.774,1.499c0.385,-0.059 0.152,0.216 -0.09,0.253c-2.742,0.417 -5.789,-0.471 -8.39,-1.278c-2.61,-0.81 -5.69,-1.792 -7.61,-3.853zM241.238,107.784c-0.008,-0.181 0.545,-0.284 0.55,-0.149c0.031,0.651 -0.419,1.166 -0.975,1.438c-0.67,0.328 -1.338,0.162 -2.039,0.212c-0.367,0.026 0.058,-0.253 0.228,-0.266c0.451,-0.031 0.902,0.111 1.352,-0.023c0.524,-0.156 0.91,-0.659 0.884,-1.212zM238.454,107.975c-0.119,0.081 -0.675,0.116 -0.434,-0.052c0.945,-0.651 2.019,-1.088 3.181,-0.984c0.293,0.027 -0.206,0.274 -0.349,0.261c-0.889,-0.08 -1.682,0.279 -2.398,0.775zM224.477,112.303c-0.02,-0.176 0.534,-0.293 0.552,-0.148c0.39,3.243 -3.884,2.544 -5.655,1.346c-1.365,-0.922 -2.515,-2.873 -1.83,-4.565c0.421,-1.042 1.301,-1.319 2.359,-1.18c0.296,0.039 -0.204,0.281 -0.348,0.261c-1.725,-0.226 -1.776,1.753 -1.479,2.8c0.256,0.902 0.726,1.748 1.522,2.287c1.452,0.982 5.233,2.139 4.879,-0.801zM225.007,112.289c0.025,0.174 -0.53,0.296 -0.551,0.148c-0.122,-0.857 -0.846,-0.239 -1.263,0.07c-0.266,0.197 -0.536,0.375 -0.853,0.477c-0.786,0.255 -1.554,0.219 -2.219,-0.307c-0.117,-0.094 0.382,-0.307 0.516,-0.201c1.296,1.028 2.183,-0.323 3.34,-0.718c0.528,-0.18 0.947,-0.057 1.03,0.531zM219.01,110.737c0.059,0.132 -0.479,0.311 -0.551,0.147c-0.393,-0.882 0.482,-1.568 1.284,-1.74c1.281,-0.276 2.307,0.58 3.496,0.912c0.194,0.053 -0.301,0.279 -0.446,0.238c-0.714,-0.198 -1.341,-0.592 -2.042,-0.817c-0.865,-0.277 -2.234,0.153 -1.741,1.26zM239.021,89.769c-0.191,-0.046 0.301,-0.275 0.447,-0.239c4.697,1.136 5.311,6.348 6.032,10.417c0.029,0.169 -0.526,0.298 -0.551,0.148c-0.708,-3.997 -1.297,-9.206 -5.928,-10.326zM239.466,89.529c0.192,0.045 -0.299,0.274 -0.445,0.24c-1.761,-0.412 -3.731,0.381 -5.352,1.004c-1.754,0.674 -3.471,1.448 -5.233,2.104c-1.996,0.743 -5.174,2.062 -7.079,0.44c-0.117,-0.1 0.387,-0.311 0.516,-0.201c1.292,1.101 3.201,0.628 4.666,0.172c1.736,-0.541 3.406,-1.267 5.087,-1.956c2.328,-0.954 5.249,-2.409 7.84,-1.803zM242.358,124.114c0.227,-0.082 0.57,0.042 0.204,0.174c-1.071,0.387 -1.978,0.113 -3.046,-0.134c-0.19,-0.044 0.3,-0.272 0.446,-0.238c0.799,0.184 1.582,0.493 2.396,0.198zM225.629,102.892c-0.072,0.157 -0.606,0.213 -0.548,0.084c1.175,-2.564 5.107,-4.375 7.86,-3.441c0.198,0.066 -0.301,0.287 -0.446,0.239c-2.464,-0.836 -5.828,0.855 -6.866,3.118zM239.818,97.935c-0.1,0.112 -0.643,0.171 -0.506,0.016c1.361,-1.528 3.881,-1.432 5.431,-0.242c0.115,0.09 -0.38,0.305 -0.518,0.201c-1.251,-0.962 -3.263,-1.259 -4.407,0.025zM242.403,110.509c-0.118,-0.047 -0.005,-0.144 0.06,-0.176c0.103,-0.056 0.271,-0.108 0.388,-0.062c0.316,0.125 0.549,0.381 0.566,0.732c0.009,0.183 -0.545,0.284 -0.551,0.148c-0.015,-0.299 -0.187,-0.533 -0.463,-0.642zM235.13,113.832c0.067,0.107 -0.453,0.307 -0.553,0.147c-0.218,-0.352 -0.143,-0.856 0.217,-1.082c0.1,-0.063 0.274,-0.102 0.388,-0.062c0.125,0.044 -0.003,0.144 -0.059,0.178c0.047,-0.029 -0.024,0.05 -0.026,0.055c-0.014,0.025 -0.025,0.053 -0.037,0.08c-0.021,0.061 -0.04,0.124 -0.047,0.188c-0.019,0.179 0.022,0.344 0.117,0.496zM234.875,113.54c-0.323,0.103 -0.377,-0.12 -0.061,-0.221c2.57,-0.81 5.427,-3.395 8.289,-2.706c0.193,0.045 -0.298,0.273 -0.444,0.238c-1.691,-0.406 -3.726,0.845 -5.191,1.56c-0.848,0.413 -1.693,0.845 -2.593,1.129zM241.648,112.922c-0.032,-0.169 0.521,-0.301 0.55,-0.149c0.277,1.456 -0.861,2.406 -2.244,2.547c-0.781,0.081 -1.486,-0.034 -2.23,-0.313c-1.055,-0.395 -2.044,-1.147 -3.102,-1.457c-0.196,-0.056 0.3,-0.281 0.446,-0.239c1.101,0.322 1.988,1.103 3.101,1.457c1.543,0.492 3.889,0.305 3.479,-1.846zM242.199,112.773c0.033,0.168 -0.522,0.301 -0.55,0.148c-0.19,-0.972 0.228,-1.754 1.07,-2.246c0.15,-0.089 0.648,-0.072 0.329,0.116c-0.735,0.429 -1.007,1.167 -0.849,1.982zM241.761,114.883c0.045,-0.161 0.591,-0.243 0.545,-0.085c-0.385,1.395 -3.019,2.054 -4.161,1.39c-0.109,-0.064 0.366,-0.289 0.518,-0.201c0.877,0.511 2.804,-0.04 3.098,-1.104zM227.659,116.475c0.006,-0.188 0.554,-0.273 0.55,-0.147c-0.022,0.799 0.062,1.67 -0.113,2.458c-0.139,0.626 -0.489,1.138 -0.865,1.647c-0.09,0.122 -0.635,0.192 -0.506,0.017c0.382,-0.517 0.759,-1.057 0.847,-1.709c0.101,-0.746 0.065,-1.514 0.087,-2.266zM236.015,113.121c-0.119,0.075 -0.678,0.104 -0.433,-0.052c0.536,-0.34 1.279,-0.364 1.88,-0.524c1.432,-0.383 3.144,-0.465 4.512,-1.011c0.226,-0.091 0.564,0.029 0.203,0.174c-1.016,0.405 -2.194,0.452 -3.252,0.704c-0.682,0.161 -1.353,0.375 -2.037,0.521c-0.272,0.06 -0.637,0.038 -0.873,0.188zM238.426,109.685c-0.093,0.092 -0.237,0.136 -0.366,0.141c-0.06,0.002 -0.235,-0.03 -0.141,-0.125c0.181,-0.18 0.363,-0.371 0.588,-0.494c0.109,-0.058 0.269,-0.104 0.388,-0.062c0.122,0.044 0.001,0.146 -0.058,0.178c-0.156,0.086 -0.286,0.237 -0.411,0.362z" id="Head_1_" fill="#010101" stroke="none" stroke-width="1"/></g></g></svg>